<?xml version="1.0" encoding="UTF-8" standalone="no"?>
<!DOCTYPE svg PUBLIC "-//W3C//DTD SVG 1.1//EN"
"http://www.w3.org/Graphics/SVG/1.1/DTD/svg11.dtd">
<!-- Generated by graphviz version 2.28.0 (20140729.0816)
-->
<!-- Title: workflow://Anonymous/Workflow#summary Pages: 1 -->
<svg width="1400px" height="770px"
viewBox="0.00 0.00 1399.00 732.00" xmlns="http://www.w3.org/2000/svg" xmlns:xlink="http://www.w3.org/1999/xlink">
<g id="graph1" class="graph" transform="scale(1 1) rotate(0) translate(4 728)">
<title>workflow://Anonymous/Workflow#summary</title>
<polygon fill="white" stroke="white" points="-4,5 -4,-728 1396,-728 1396,5 -4,5"/>
<!-- file://Anonymous//home/UNIXHOME/bbowman/2014/09/HLA_Hackathon/Single_11/input.xml -->
<a xlink:href="..//home/UNIXHOME/bbowman/2014/09/HLA_Hackathon/Single_11/input.xml">
<g id="node1" class="node"><title>file://Anonymous//home/UNIXHOME/bbowman/2014/09/HLA_Hackathon/Single_11/input.xml</title>
<polygon fill="#eeeeee" stroke="black" points="1028.16,-724 569.84,-724 569.84,-720 565.84,-720 565.84,-716 569.84,-716 569.84,-696 565.84,-696 565.84,-692 569.84,-692 569.84,-688 1028.16,-688 1028.16,-724"/>
<polyline fill="none" stroke="black" points="569.84,-720 573.84,-720 573.84,-716 569.84,-716 "/>
<polyline fill="none" stroke="black" points="569.84,-696 573.84,-696 573.84,-692 569.84,-692 "/>
<text text-anchor="middle" x="799" y="-701.8" font-family="Times New Roman" font-size="14.00">/home/UNIXHOME/bbowman/2014/09/HLA_Hackathon/Single_11/input.xml</text>
</g>
</a>
<!-- task://Anonymous/P_Fetch/toFofn -->
<g id="node17" class="node"><title>task://Anonymous/P_Fetch/toFofn</title>
<polygon fill="#e78ac3" stroke="#000000" points="877.375,-606.878 877.375,-633.122 831.464,-651.679 766.536,-651.679 720.625,-633.122 720.625,-606.878 766.536,-588.321 831.464,-588.321 877.375,-606.878"/>
<text text-anchor="middle" x="799" y="-624.2" font-family="Times New Roman" font-size="14.00">P_Fetch/toFofn</text>
<text text-anchor="middle" x="799" y="-607.4" font-family="Times New Roman" font-size="14.00">0:00:00</text>
</g>
<!-- file://Anonymous//home/UNIXHOME/bbowman/2014/09/HLA_Hackathon/Single_11/input.xml&#45;&gt;task://Anonymous/P_Fetch/toFofn -->
<g id="edge2" class="edge"><title>file://Anonymous//home/UNIXHOME/bbowman/2014/09/HLA_Hackathon/Single_11/input.xml&#45;&gt;task://Anonymous/P_Fetch/toFofn</title>
<path fill="none" stroke="black" d="M799,-687.595C799,-680.123 799,-671.048 799,-662.032"/>
<polygon fill="black" stroke="black" points="802.5,-661.967 799,-651.967 795.5,-661.967 802.5,-661.967"/>
</g>
<!-- file://Anonymous/data/amplicon_analysis.csv -->
<a xlink:href="../data/amplicon_analysis.csv">
<g id="node2" class="node"><title>file://Anonymous/data/amplicon_analysis.csv</title>
<polygon fill="#eeeeee" stroke="black" points="1220.18,-208 1051.82,-208 1051.82,-204 1047.82,-204 1047.82,-200 1051.82,-200 1051.82,-180 1047.82,-180 1047.82,-176 1051.82,-176 1051.82,-172 1220.18,-172 1220.18,-208"/>
<polyline fill="none" stroke="black" points="1051.82,-204 1055.82,-204 1055.82,-200 1051.82,-200 "/>
<polyline fill="none" stroke="black" points="1051.82,-180 1055.82,-180 1055.82,-176 1051.82,-176 "/>
<text text-anchor="middle" x="1136" y="-185.8" font-family="Times New Roman" font-size="14.00">data/amplicon_analysis.csv</text>
</g>
</a>
<!-- file://Anonymous/data/amplicon_analysis.fastq -->
<a xlink:href="../data/amplicon_analysis.fastq">
<g id="node3" class="node"><title>file://Anonymous/data/amplicon_analysis.fastq</title>
<polygon fill="#eeeeee" stroke="black" points="364.091,-208 185.909,-208 185.909,-204 181.909,-204 181.909,-200 185.909,-200 185.909,-180 181.909,-180 181.909,-176 185.909,-176 185.909,-172 364.091,-172 364.091,-208"/>
<polyline fill="none" stroke="black" points="185.909,-204 189.909,-204 189.909,-200 185.909,-200 "/>
<polyline fill="none" stroke="black" points="185.909,-180 189.909,-180 189.909,-176 185.909,-176 "/>
<text text-anchor="middle" x="275" y="-185.8" font-family="Times New Roman" font-size="14.00">data/amplicon_analysis.fastq</text>
</g>
</a>
<!-- file://Anonymous/data/amplicon_analysis_summary.csv -->
<a xlink:href="../data/amplicon_analysis_summary.csv">
<g id="node4" class="node"><title>file://Anonymous/data/amplicon_analysis_summary.csv</title>
<polygon fill="#eeeeee" stroke="black" points="838.004,-208 609.996,-208 609.996,-204 605.996,-204 605.996,-200 609.996,-200 609.996,-180 605.996,-180 605.996,-176 609.996,-176 609.996,-172 838.004,-172 838.004,-208"/>
<polyline fill="none" stroke="black" points="609.996,-204 613.996,-204 613.996,-200 609.996,-200 "/>
<polyline fill="none" stroke="black" points="609.996,-180 613.996,-180 613.996,-176 609.996,-176 "/>
<text text-anchor="middle" x="724" y="-185.8" font-family="Times New Roman" font-size="14.00">data/amplicon_analysis_summary.csv</text>
</g>
</a>
<!-- task://Anonymous/P_AmpliconAnalysis/ampliconAnalysisInputReport -->
<g id="node18" class="node"><title>task://Anonymous/P_AmpliconAnalysis/ampliconAnalysisInputReport</title>
<polygon fill="#aaaaaa" stroke="#000000" points="723.063,-90.878 723.063,-117.122 584.781,-135.679 389.219,-135.679 250.937,-117.122 250.937,-90.878 389.219,-72.3207 584.781,-72.3207 723.063,-90.878"/>
<text text-anchor="middle" x="487" y="-108.2" font-family="Times New Roman" font-size="14.00">P_AmpliconAnalysis/ampliconAnalysisInputReport</text>
<text text-anchor="middle" x="487" y="-91.4" font-family="Times New Roman" font-size="14.00">0:00:02</text>
</g>
<!-- file://Anonymous/data/amplicon_analysis_summary.csv&#45;&gt;task://Anonymous/P_AmpliconAnalysis/ampliconAnalysisInputReport -->
<g id="edge52" class="edge"><title>file://Anonymous/data/amplicon_analysis_summary.csv&#45;&gt;task://Anonymous/P_AmpliconAnalysis/ampliconAnalysisInputReport</title>
<path fill="none" stroke="black" d="M675.754,-171.9C649.261,-162.51 615.435,-150.521 583.756,-139.293"/>
<polygon fill="black" stroke="black" points="584.599,-135.879 574.004,-135.837 582.26,-142.477 584.599,-135.879"/>
</g>
<!-- task://Anonymous/P_AmpliconAnalysis/ampliconAnalysisConsensusReport -->
<g id="node19" class="node"><title>task://Anonymous/P_AmpliconAnalysis/ampliconAnalysisConsensusReport</title>
<polygon fill="#aaaaaa" stroke="#000000" points="1258.89,-90.878 1258.89,-117.122 1107.24,-135.679 892.765,-135.679 741.112,-117.122 741.112,-90.878 892.765,-72.3207 1107.24,-72.3207 1258.89,-90.878"/>
<text text-anchor="middle" x="1000" y="-108.2" font-family="Times New Roman" font-size="14.00">P_AmpliconAnalysis/ampliconAnalysisConsensusReport</text>
<text text-anchor="middle" x="1000" y="-91.4" font-family="Times New Roman" font-size="14.00">0:00:02</text>
</g>
<!-- file://Anonymous/data/amplicon_analysis_summary.csv&#45;&gt;task://Anonymous/P_AmpliconAnalysis/ampliconAnalysisConsensusReport -->
<g id="edge36" class="edge"><title>file://Anonymous/data/amplicon_analysis_summary.csv&#45;&gt;task://Anonymous/P_AmpliconAnalysis/ampliconAnalysisConsensusReport</title>
<path fill="none" stroke="black" d="M780.185,-171.9C811.51,-162.367 851.636,-150.154 889.011,-138.779"/>
<polygon fill="black" stroke="black" points="890.409,-142.012 898.957,-135.752 888.371,-135.316 890.409,-142.012"/>
</g>
<!-- task://Anonymous/P_Barcode/barcodeJsonReport -->
<g id="node5" class="node"><title>task://Anonymous/P_Barcode/barcodeJsonReport</title>
<polygon fill="#fed98e" stroke="#000000" points="472.034,-262.878 472.034,-289.122 387.661,-307.679 268.339,-307.679 183.966,-289.122 183.966,-262.878 268.339,-244.321 387.661,-244.321 472.034,-262.878"/>
<text text-anchor="middle" x="328" y="-280.2" font-family="Times New Roman" font-size="14.00">P_Barcode/barcodeJsonReport</text>
<text text-anchor="middle" x="328" y="-263.4" font-family="Times New Roman" font-size="14.00">0:00:24</text>
</g>
<!-- file://Anonymous/results/barcode_report.json -->
<a xlink:href="../results/barcode_report.json">
<g id="node11" class="node"><title>file://Anonymous/results/barcode_report.json</title>
<polygon fill="#eeeeee" stroke="black" points="168.002,-208 -0.00165001,-208 -0.00165001,-204 -4.00165,-204 -4.00165,-200 -0.00165001,-200 -0.00165001,-180 -4.00165,-180 -4.00165,-176 -0.00165001,-176 -0.00165001,-172 168.002,-172 168.002,-208"/>
<polyline fill="none" stroke="black" points="-0.00165001,-204 3.99835,-204 3.99835,-200 -0.00165001,-200 "/>
<polyline fill="none" stroke="black" points="-0.00165001,-180 3.99835,-180 3.99835,-176 -0.00165001,-176 "/>
<text text-anchor="middle" x="84" y="-185.8" font-family="Times New Roman" font-size="14.00">results/barcode_report.json</text>
</g>
</a>
<!-- task://Anonymous/P_Barcode/barcodeJsonReport&#45;&gt;file://Anonymous/results/barcode_report.json -->
<g id="edge16" class="edge"><title>task://Anonymous/P_Barcode/barcodeJsonReport&#45;&gt;file://Anonymous/results/barcode_report.json</title>
<path fill="none" stroke="black" d="M250.126,-248.191C215.494,-236.268 175.379,-222.458 143.246,-211.396"/>
<polygon fill="black" stroke="black" points="144.139,-208.002 133.545,-208.056 141.861,-214.621 144.139,-208.002"/>
</g>
<!-- task://Anonymous/P_Barcode/labelZMWs -->
<g id="node6" class="node"><title>task://Anonymous/P_Barcode/labelZMWs</title>
<polygon fill="#fed98e" stroke="#000000" points="752.119,-434.878 752.119,-461.122 685.856,-479.679 592.144,-479.679 525.881,-461.122 525.881,-434.878 592.144,-416.321 685.856,-416.321 752.119,-434.878"/>
<text text-anchor="middle" x="639" y="-452.2" font-family="Times New Roman" font-size="14.00">P_Barcode/labelZMWs</text>
<text text-anchor="middle" x="639" y="-435.4" font-family="Times New Roman" font-size="14.00">0:02:45</text>
</g>
<!-- file://Anonymous/data/barcode.fofn -->
<a xlink:href="../data/barcode.fofn">
<g id="node23" class="node"><title>file://Anonymous/data/barcode.fofn</title>
<polygon fill="#eeeeee" stroke="black" points="724.252,-380 609.748,-380 609.748,-376 605.748,-376 605.748,-372 609.748,-372 609.748,-352 605.748,-352 605.748,-348 609.748,-348 609.748,-344 724.252,-344 724.252,-380"/>
<polyline fill="none" stroke="black" points="609.748,-376 613.748,-376 613.748,-372 609.748,-372 "/>
<polyline fill="none" stroke="black" points="609.748,-352 613.748,-352 613.748,-348 609.748,-348 "/>
<text text-anchor="middle" x="667" y="-357.8" font-family="Times New Roman" font-size="14.00">data/barcode.fofn</text>
</g>
</a>
<!-- task://Anonymous/P_Barcode/labelZMWs&#45;&gt;file://Anonymous/data/barcode.fofn -->
<g id="edge42" class="edge"><title>task://Anonymous/P_Barcode/labelZMWs&#45;&gt;file://Anonymous/data/barcode.fofn</title>
<path fill="none" stroke="black" d="M649.267,-416.198C652.152,-407.543 655.265,-398.204 658.066,-389.802"/>
<polygon fill="black" stroke="black" points="661.449,-390.722 661.291,-380.128 654.808,-388.508 661.449,-390.722"/>
</g>
<!-- file://Anonymous/results/overview.json -->
<a xlink:href="../results/overview.json">
<g id="node7" class="node"><title>file://Anonymous/results/overview.json</title>
<polygon fill="#eeeeee" stroke="black" points="1231.52,-380 1096.48,-380 1096.48,-376 1092.48,-376 1092.48,-372 1096.48,-372 1096.48,-352 1092.48,-352 1092.48,-348 1096.48,-348 1096.48,-344 1231.52,-344 1231.52,-380"/>
<polyline fill="none" stroke="black" points="1096.48,-376 1100.48,-376 1100.48,-372 1096.48,-372 "/>
<polyline fill="none" stroke="black" points="1096.48,-352 1100.48,-352 1100.48,-348 1096.48,-348 "/>
<text text-anchor="middle" x="1164" y="-357.8" font-family="Times New Roman" font-size="14.00">results/overview.json</text>
</g>
</a>
<!-- file://Anonymous/data/amplicon_analysis.fasta -->
<a xlink:href="../data/amplicon_analysis.fasta">
<g id="node8" class="node"><title>file://Anonymous/data/amplicon_analysis.fasta</title>
<polygon fill="#eeeeee" stroke="black" points="1033.5,-208 856.498,-208 856.498,-204 852.498,-204 852.498,-200 856.498,-200 856.498,-180 852.498,-180 852.498,-176 856.498,-176 856.498,-172 1033.5,-172 1033.5,-208"/>
<polyline fill="none" stroke="black" points="856.498,-204 860.498,-204 860.498,-200 856.498,-200 "/>
<polyline fill="none" stroke="black" points="856.498,-180 860.498,-180 860.498,-176 856.498,-176 "/>
<text text-anchor="middle" x="945" y="-185.8" font-family="Times New Roman" font-size="14.00">data/amplicon_analysis.fasta</text>
</g>
</a>
<!-- file://Anonymous/results/amplicon_analysis_consensus_report.json -->
<a xlink:href="../results/amplicon_analysis_consensus_report.json">
<g id="node9" class="node"><title>file://Anonymous/results/amplicon_analysis_consensus_report.json</title>
<polygon fill="#eeeeee" stroke="black" points="1145.25,-36 854.753,-36 854.753,-32 850.753,-32 850.753,-28 854.753,-28 854.753,-8 850.753,-8 850.753,-4 854.753,-4 854.753,-0 1145.25,-0 1145.25,-36"/>
<polyline fill="none" stroke="black" points="854.753,-32 858.753,-32 858.753,-28 854.753,-28 "/>
<polyline fill="none" stroke="black" points="854.753,-8 858.753,-8 858.753,-4 854.753,-4 "/>
<text text-anchor="middle" x="1000" y="-13.8" font-family="Times New Roman" font-size="14.00">results/amplicon_analysis_consensus_report.json</text>
</g>
</a>
<!-- file://Anonymous/input.fofn -->
<a xlink:href="../input.fofn">
<g id="node10" class="node"><title>file://Anonymous/input.fofn</title>
<polygon fill="#eeeeee" stroke="black" points="834.205,-552 763.795,-552 763.795,-548 759.795,-548 759.795,-544 763.795,-544 763.795,-524 759.795,-524 759.795,-520 763.795,-520 763.795,-516 834.205,-516 834.205,-552"/>
<polyline fill="none" stroke="black" points="763.795,-548 767.795,-548 767.795,-544 763.795,-544 "/>
<polyline fill="none" stroke="black" points="763.795,-524 767.795,-524 767.795,-520 763.795,-520 "/>
<text text-anchor="middle" x="799" y="-529.8" font-family="Times New Roman" font-size="14.00">input.fofn</text>
</g>
</a>
<!-- file://Anonymous/input.fofn&#45;&gt;task://Anonymous/P_Barcode/barcodeJsonReport -->
<g id="edge4" class="edge"><title>file://Anonymous/input.fofn&#45;&gt;task://Anonymous/P_Barcode/barcodeJsonReport</title>
<path fill="none" stroke="black" d="M763.68,-533.275C707.844,-532.254 597.288,-524.221 517,-480 444.931,-440.306 384.87,-363.167 352.893,-316.25"/>
<polygon fill="black" stroke="black" points="355.736,-314.205 347.253,-307.857 349.926,-318.109 355.736,-314.205"/>
</g>
<!-- file://Anonymous/input.fofn&#45;&gt;task://Anonymous/P_Barcode/labelZMWs -->
<g id="edge20" class="edge"><title>file://Anonymous/input.fofn&#45;&gt;task://Anonymous/P_Barcode/labelZMWs</title>
<path fill="none" stroke="black" d="M766.236,-515.799C747.834,-506.138 724.238,-493.75 702.376,-482.272"/>
<polygon fill="black" stroke="black" points="703.937,-479.139 693.456,-477.589 700.683,-485.337 703.937,-479.139"/>
</g>
<!-- task://Anonymous/P_AmpliconAnalysis/doBarcodeAmpliconAnalysis -->
<g id="node12" class="node"><title>task://Anonymous/P_AmpliconAnalysis/doBarcodeAmpliconAnalysis</title>
<polygon fill="#aaaaaa" stroke="#000000" points="957.481,-262.878 957.481,-289.122 820.711,-307.679 627.289,-307.679 490.519,-289.122 490.519,-262.878 627.289,-244.321 820.711,-244.321 957.481,-262.878"/>
<text text-anchor="middle" x="724" y="-280.2" font-family="Times New Roman" font-size="14.00">P_AmpliconAnalysis/doBarcodeAmpliconAnalysis</text>
<text text-anchor="middle" x="724" y="-263.4" font-family="Times New Roman" font-size="14.00">0:55:29</text>
</g>
<!-- file://Anonymous/input.fofn&#45;&gt;task://Anonymous/P_AmpliconAnalysis/doBarcodeAmpliconAnalysis -->
<g id="edge12" class="edge"><title>file://Anonymous/input.fofn&#45;&gt;task://Anonymous/P_AmpliconAnalysis/doBarcodeAmpliconAnalysis</title>
<path fill="none" stroke="black" d="M793.963,-515.806C782.189,-475.618 752.606,-374.64 735.923,-317.697"/>
<polygon fill="black" stroke="black" points="739.235,-316.552 733.064,-307.939 732.517,-318.52 739.235,-316.552"/>
</g>
<!-- task://Anonymous/P_Fetch/adapterRpt -->
<g id="node13" class="node"><title>task://Anonymous/P_Fetch/adapterRpt</title>
<polygon fill="#e78ac3" stroke="#000000" points="1040.03,-434.878 1040.03,-461.122 983.191,-479.679 902.809,-479.679 845.97,-461.122 845.97,-434.878 902.809,-416.321 983.191,-416.321 1040.03,-434.878"/>
<text text-anchor="middle" x="943" y="-452.2" font-family="Times New Roman" font-size="14.00">P_Fetch/adapterRpt</text>
<text text-anchor="middle" x="943" y="-435.4" font-family="Times New Roman" font-size="14.00">0:01:03</text>
</g>
<!-- file://Anonymous/input.fofn&#45;&gt;task://Anonymous/P_Fetch/adapterRpt -->
<g id="edge22" class="edge"><title>file://Anonymous/input.fofn&#45;&gt;task://Anonymous/P_Fetch/adapterRpt</title>
<path fill="none" stroke="black" d="M828.488,-515.799C845.117,-506.098 866.459,-493.649 886.204,-482.131"/>
<polygon fill="black" stroke="black" points="887.969,-485.153 894.844,-477.091 884.442,-479.107 887.969,-485.153"/>
</g>
<!-- task://Anonymous/P_Fetch/overviewRpt -->
<g id="node15" class="node"><title>task://Anonymous/P_Fetch/overviewRpt</title>
<polygon fill="#e78ac3" stroke="#000000" points="1269.53,-434.878 1269.53,-461.122 1207.71,-479.679 1120.29,-479.679 1058.47,-461.122 1058.47,-434.878 1120.29,-416.321 1207.71,-416.321 1269.53,-434.878"/>
<text text-anchor="middle" x="1164" y="-452.2" font-family="Times New Roman" font-size="14.00">P_Fetch/overviewRpt</text>
<text text-anchor="middle" x="1164" y="-435.4" font-family="Times New Roman" font-size="14.00">0:00:02</text>
</g>
<!-- file://Anonymous/input.fofn&#45;&gt;task://Anonymous/P_Fetch/overviewRpt -->
<g id="edge38" class="edge"><title>file://Anonymous/input.fofn&#45;&gt;task://Anonymous/P_Fetch/overviewRpt</title>
<path fill="none" stroke="black" d="M834.328,-526.14C882.876,-516.57 972.864,-498.318 1049,-480 1058.5,-477.715 1068.41,-475.217 1078.26,-472.663"/>
<polygon fill="black" stroke="black" points="1079.27,-476.014 1088.06,-470.096 1077.5,-469.242 1079.27,-476.014"/>
</g>
<!-- task://Anonymous/P_Barcode/emitFastqs -->
<g id="node20" class="node"><title>task://Anonymous/P_Barcode/emitFastqs</title>
<polygon fill="#fed98e" stroke="#000000" points="1192.5,-262.878 1192.5,-289.122 1128.94,-307.679 1039.06,-307.679 975.503,-289.122 975.503,-262.878 1039.06,-244.321 1128.94,-244.321 1192.5,-262.878"/>
<text text-anchor="middle" x="1084" y="-280.2" font-family="Times New Roman" font-size="14.00">P_Barcode/emitFastqs</text>
<text text-anchor="middle" x="1084" y="-263.4" font-family="Times New Roman" font-size="14.00">0:03:17</text>
</g>
<!-- file://Anonymous/input.fofn&#45;&gt;task://Anonymous/P_Barcode/emitFastqs -->
<g id="edge26" class="edge"><title>file://Anonymous/input.fofn&#45;&gt;task://Anonymous/P_Barcode/emitFastqs</title>
<path fill="none" stroke="black" d="M796.996,-515.743C793.752,-478.988 791.724,-392.39 837,-344 838.441,-342.46 925.086,-319.171 995.343,-300.478"/>
<polygon fill="black" stroke="black" points="996.373,-303.826 1005.14,-297.874 994.574,-297.061 996.373,-303.826"/>
</g>
<!-- task://Anonymous/P_AmpliconAnalysis/doBarcodeAmpliconAnalysis&#45;&gt;file://Anonymous/data/amplicon_analysis.csv -->
<g id="edge28" class="edge"><title>task://Anonymous/P_AmpliconAnalysis/doBarcodeAmpliconAnalysis&#45;&gt;file://Anonymous/data/amplicon_analysis.csv</title>
<path fill="none" stroke="black" d="M853.229,-248.652C914.561,-236.148 986.489,-221.483 1042.45,-210.073"/>
<polygon fill="black" stroke="black" points="1043.25,-213.481 1052.35,-208.054 1041.86,-206.623 1043.25,-213.481"/>
</g>
<!-- task://Anonymous/P_AmpliconAnalysis/doBarcodeAmpliconAnalysis&#45;&gt;file://Anonymous/data/amplicon_analysis.fastq -->
<g id="edge50" class="edge"><title>task://Anonymous/P_AmpliconAnalysis/doBarcodeAmpliconAnalysis&#45;&gt;file://Anonymous/data/amplicon_analysis.fastq</title>
<path fill="none" stroke="black" d="M588.067,-249.569C519.098,-236.667 436.849,-221.279 373.966,-209.515"/>
<polygon fill="black" stroke="black" points="374.518,-206.057 364.044,-207.659 373.23,-212.938 374.518,-206.057"/>
</g>
<!-- task://Anonymous/P_AmpliconAnalysis/doBarcodeAmpliconAnalysis&#45;&gt;file://Anonymous/data/amplicon_analysis_summary.csv -->
<g id="edge44" class="edge"><title>task://Anonymous/P_AmpliconAnalysis/doBarcodeAmpliconAnalysis&#45;&gt;file://Anonymous/data/amplicon_analysis_summary.csv</title>
<path fill="none" stroke="black" d="M724,-244.198C724,-235.734 724,-226.614 724,-218.358"/>
<polygon fill="black" stroke="black" points="727.5,-218.128 724,-208.128 720.5,-218.128 727.5,-218.128"/>
</g>
<!-- task://Anonymous/P_AmpliconAnalysis/doBarcodeAmpliconAnalysis&#45;&gt;file://Anonymous/data/amplicon_analysis.fasta -->
<g id="edge40" class="edge"><title>task://Anonymous/P_AmpliconAnalysis/doBarcodeAmpliconAnalysis&#45;&gt;file://Anonymous/data/amplicon_analysis.fasta</title>
<path fill="none" stroke="black" d="M804.724,-244.318C833.261,-233.471 864.661,-221.536 890.504,-211.713"/>
<polygon fill="black" stroke="black" points="892.016,-214.883 900.12,-208.059 889.529,-208.34 892.016,-214.883"/>
</g>
<!-- file://Anonymous/data/amplicon_analysis_zmws.csv -->
<a xlink:href="../data/amplicon_analysis_zmws.csv">
<g id="node14" class="node"><title>file://Anonymous/data/amplicon_analysis_zmws.csv</title>
<polygon fill="#eeeeee" stroke="black" points="591.42,-208 382.58,-208 382.58,-204 378.58,-204 378.58,-200 382.58,-200 382.58,-180 378.58,-180 378.58,-176 382.58,-176 382.58,-172 591.42,-172 591.42,-208"/>
<polyline fill="none" stroke="black" points="382.58,-204 386.58,-204 386.58,-200 382.58,-200 "/>
<polyline fill="none" stroke="black" points="382.58,-180 386.58,-180 386.58,-176 382.58,-176 "/>
<text text-anchor="middle" x="487" y="-185.8" font-family="Times New Roman" font-size="14.00">data/amplicon_analysis_zmws.csv</text>
</g>
</a>
<!-- task://Anonymous/P_AmpliconAnalysis/doBarcodeAmpliconAnalysis&#45;&gt;file://Anonymous/data/amplicon_analysis_zmws.csv -->
<g id="edge10" class="edge"><title>task://Anonymous/P_AmpliconAnalysis/doBarcodeAmpliconAnalysis&#45;&gt;file://Anonymous/data/amplicon_analysis_zmws.csv</title>
<path fill="none" stroke="black" d="M637.432,-244.318C606.559,-233.375 572.562,-221.326 544.71,-211.454"/>
<polygon fill="black" stroke="black" points="545.724,-208.1 535.129,-208.059 543.386,-214.698 545.724,-208.1"/>
</g>
<!-- file://Anonymous/results/filter_reports_adapters.json -->
<a xlink:href="../results/filter_reports_adapters.json">
<g id="node16" class="node"><title>file://Anonymous/results/filter_reports_adapters.json</title>
<polygon fill="#eeeeee" stroke="black" points="1055.49,-380 846.508,-380 846.508,-376 842.508,-376 842.508,-372 846.508,-372 846.508,-352 842.508,-352 842.508,-348 846.508,-348 846.508,-344 1055.49,-344 1055.49,-380"/>
<polyline fill="none" stroke="black" points="846.508,-376 850.508,-376 850.508,-372 846.508,-372 "/>
<polyline fill="none" stroke="black" points="846.508,-352 850.508,-352 850.508,-348 846.508,-348 "/>
<text text-anchor="middle" x="951" y="-357.8" font-family="Times New Roman" font-size="14.00">results/filter_reports_adapters.json</text>
</g>
</a>
<!-- task://Anonymous/P_Fetch/adapterRpt&#45;&gt;file://Anonymous/results/filter_reports_adapters.json -->
<g id="edge30" class="edge"><title>task://Anonymous/P_Fetch/adapterRpt&#45;&gt;file://Anonymous/results/filter_reports_adapters.json</title>
<path fill="none" stroke="black" d="M945.933,-416.198C946.74,-407.734 947.608,-398.614 948.395,-390.358"/>
<polygon fill="black" stroke="black" points="951.905,-390.415 949.369,-380.128 944.936,-389.752 951.905,-390.415"/>
</g>
<!-- file://Anonymous/data/amplicon_analysis_zmws.csv&#45;&gt;task://Anonymous/P_AmpliconAnalysis/ampliconAnalysisInputReport -->
<g id="edge18" class="edge"><title>file://Anonymous/data/amplicon_analysis_zmws.csv&#45;&gt;task://Anonymous/P_AmpliconAnalysis/ampliconAnalysisInputReport</title>
<path fill="none" stroke="black" d="M487,-171.595C487,-164.123 487,-155.048 487,-146.032"/>
<polygon fill="black" stroke="black" points="490.5,-145.967 487,-135.967 483.5,-145.967 490.5,-145.967"/>
</g>
<!-- task://Anonymous/P_Fetch/overviewRpt&#45;&gt;file://Anonymous/results/overview.json -->
<g id="edge46" class="edge"><title>task://Anonymous/P_Fetch/overviewRpt&#45;&gt;file://Anonymous/results/overview.json</title>
<path fill="none" stroke="black" d="M1164,-416.198C1164,-407.734 1164,-398.614 1164,-390.358"/>
<polygon fill="black" stroke="black" points="1167.5,-390.128 1164,-380.128 1160.5,-390.128 1167.5,-390.128"/>
</g>
<!-- task://Anonymous/P_Fetch/toFofn&#45;&gt;file://Anonymous/input.fofn -->
<g id="edge48" class="edge"><title>task://Anonymous/P_Fetch/toFofn&#45;&gt;file://Anonymous/input.fofn</title>
<path fill="none" stroke="black" d="M799,-588.198C799,-579.734 799,-570.614 799,-562.358"/>
<polygon fill="black" stroke="black" points="802.5,-562.128 799,-552.128 795.5,-562.128 802.5,-562.128"/>
</g>
<!-- file://Anonymous/results/amplicon_analysis_input_report.json -->
<a xlink:href="../results/amplicon_analysis_input_report.json">
<g id="node21" class="node"><title>file://Anonymous/results/amplicon_analysis_input_report.json</title>
<polygon fill="#eeeeee" stroke="black" points="618.26,-36 355.74,-36 355.74,-32 351.74,-32 351.74,-28 355.74,-28 355.74,-8 351.74,-8 351.74,-4 355.74,-4 355.74,-0 618.26,-0 618.26,-36"/>
<polyline fill="none" stroke="black" points="355.74,-32 359.74,-32 359.74,-28 355.74,-28 "/>
<polyline fill="none" stroke="black" points="355.74,-8 359.74,-8 359.74,-4 355.74,-4 "/>
<text text-anchor="middle" x="487" y="-13.8" font-family="Times New Roman" font-size="14.00">results/amplicon_analysis_input_report.json</text>
</g>
</a>
<!-- task://Anonymous/P_AmpliconAnalysis/ampliconAnalysisInputReport&#45;&gt;file://Anonymous/results/amplicon_analysis_input_report.json -->
<g id="edge8" class="edge"><title>task://Anonymous/P_AmpliconAnalysis/ampliconAnalysisInputReport&#45;&gt;file://Anonymous/results/amplicon_analysis_input_report.json</title>
<path fill="none" stroke="black" d="M487,-72.1985C487,-63.7337 487,-54.6142 487,-46.3577"/>
<polygon fill="black" stroke="black" points="490.5,-46.1284 487,-36.1284 483.5,-46.1284 490.5,-46.1284"/>
</g>
<!-- task://Anonymous/P_AmpliconAnalysis/ampliconAnalysisConsensusReport&#45;&gt;file://Anonymous/results/amplicon_analysis_consensus_report.json -->
<g id="edge34" class="edge"><title>task://Anonymous/P_AmpliconAnalysis/ampliconAnalysisConsensusReport&#45;&gt;file://Anonymous/results/amplicon_analysis_consensus_report.json</title>
<path fill="none" stroke="black" d="M1000,-72.1985C1000,-63.7337 1000,-54.6142 1000,-46.3577"/>
<polygon fill="black" stroke="black" points="1003.5,-46.1284 1000,-36.1284 996.5,-46.1284 1003.5,-46.1284"/>
</g>
<!-- file://Anonymous/data/barcoded&#45;fastqs.tgz -->
<g id="node22" class="node"><title>file://Anonymous/data/barcoded&#45;fastqs.tgz</title>
<polygon fill="#eeeeee" stroke="black" points="1391.33,-208 1238.67,-208 1238.67,-204 1234.67,-204 1234.67,-200 1238.67,-200 1238.67,-180 1234.67,-180 1234.67,-176 1238.67,-176 1238.67,-172 1391.33,-172 1391.33,-208"/>
<polyline fill="none" stroke="black" points="1238.67,-204 1242.67,-204 1242.67,-200 1238.67,-200 "/>
<polyline fill="none" stroke="black" points="1238.67,-180 1242.67,-180 1242.67,-176 1238.67,-176 "/>
<text text-anchor="middle" x="1315" y="-185.8" font-family="Times New Roman" font-size="14.00">data/barcoded&#45;fastqs.tgz</text>
</g>
<!-- task://Anonymous/P_Barcode/emitFastqs&#45;&gt;file://Anonymous/data/barcoded&#45;fastqs.tgz -->
<g id="edge24" class="edge"><title>task://Anonymous/P_Barcode/emitFastqs&#45;&gt;file://Anonymous/data/barcoded&#45;fastqs.tgz</title>
<path fill="none" stroke="black" d="M1150.81,-250.704C1184.87,-238.321 1225.83,-223.425 1258.32,-211.609"/>
<polygon fill="black" stroke="black" points="1259.92,-214.754 1268.12,-208.048 1257.52,-208.176 1259.92,-214.754"/>
</g>
<!-- file://Anonymous/data/barcode.fofn&#45;&gt;task://Anonymous/P_Barcode/barcodeJsonReport -->
<g id="edge14" class="edge"><title>file://Anonymous/data/barcode.fofn&#45;&gt;task://Anonymous/P_Barcode/barcodeJsonReport</title>
<path fill="none" stroke="black" d="M609.877,-346.846C561.358,-334.823 490.481,-317.261 431.94,-302.755"/>
<polygon fill="black" stroke="black" points="432.458,-299.278 421.91,-300.27 430.775,-306.072 432.458,-299.278"/>
</g>
<!-- file://Anonymous/data/barcode.fofn&#45;&gt;task://Anonymous/P_AmpliconAnalysis/doBarcodeAmpliconAnalysis -->
<g id="edge32" class="edge"><title>file://Anonymous/data/barcode.fofn&#45;&gt;task://Anonymous/P_AmpliconAnalysis/doBarcodeAmpliconAnalysis</title>
<path fill="none" stroke="black" d="M678.81,-343.595C684.208,-335.641 690.838,-325.87 697.34,-316.289"/>
<polygon fill="black" stroke="black" points="700.268,-318.207 702.987,-307.967 694.475,-314.277 700.268,-318.207"/>
</g>
<!-- file://Anonymous/data/barcode.fofn&#45;&gt;task://Anonymous/P_Barcode/emitFastqs -->
<g id="edge6" class="edge"><title>file://Anonymous/data/barcode.fofn&#45;&gt;task://Anonymous/P_Barcode/emitFastqs</title>
<path fill="none" stroke="black" d="M724.315,-352.264C784.704,-342.727 882.454,-326.347 966,-308 975.955,-305.814 986.338,-303.354 996.634,-300.801"/>
<polygon fill="black" stroke="black" points="997.618,-304.163 1006.46,-298.33 995.912,-297.374 997.618,-304.163"/>
</g>
</g>
</svg>
