<?xml version="1.0" encoding="UTF-8" standalone="no"?>
<!DOCTYPE svg PUBLIC "-//W3C//DTD SVG 1.1//EN"
"http://www.w3.org/Graphics/SVG/1.1/DTD/svg11.dtd">
<!-- Generated by graphviz version 2.28.0 (20140729.0816)
-->
<!-- Title: workflow://Anonymous/Workflow Pages: 1 -->
<svg width="2800px" height="1540px"
viewBox="0.00 0.00 1554.00 732.00" xmlns="http://www.w3.org/2000/svg" xmlns:xlink="http://www.w3.org/1999/xlink">
<g id="graph1" class="graph" transform="scale(1 1) rotate(0) translate(4 728)">
<title>workflow://Anonymous/Workflow</title>
<polygon fill="white" stroke="white" points="-4,5 -4,-728 1551,-728 1551,5 -4,5"/>
<!-- file://Anonymous/data/barcode.fofn -->
<a xlink:href="../data/barcode.fofn">
<g id="node1" class="node"><title>file://Anonymous/data/barcode.fofn</title>
<polygon fill="#eeeeee" stroke="black" points="362.252,-380 247.748,-380 247.748,-376 243.748,-376 243.748,-372 247.748,-372 247.748,-352 243.748,-352 243.748,-348 247.748,-348 247.748,-344 362.252,-344 362.252,-380"/>
<polyline fill="none" stroke="black" points="247.748,-376 251.748,-376 251.748,-372 247.748,-372 "/>
<polyline fill="none" stroke="black" points="247.748,-352 251.748,-352 251.748,-348 247.748,-348 "/>
<text text-anchor="middle" x="305" y="-357.8" font-family="Times New Roman" font-size="14.00">data/barcode.fofn</text>
</g>
</a>
<!-- task://Anonymous/P_Barcode/barcodeJsonReport -->
<a xlink:href="../log/P_Barcode/barcodeJsonReport.log">
<g id="node10" class="node"><title>task://Anonymous/P_Barcode/barcodeJsonReport</title>
<polygon fill="#fed98e" stroke="#000000" points="288.034,-262.878 288.034,-289.122 203.661,-307.679 84.339,-307.679 -0.034317,-289.122 -0.034317,-262.878 84.339,-244.321 203.661,-244.321 288.034,-262.878"/>
<text text-anchor="middle" x="144" y="-280.2" font-family="Times New Roman" font-size="14.00">P_Barcode/barcodeJsonReport</text>
<text text-anchor="middle" x="144" y="-263.4" font-family="Times New Roman" font-size="14.00">0:00:24</text>
</g>
</a>
<!-- file://Anonymous/data/barcode.fofn&#45;&gt;task://Anonymous/P_Barcode/barcodeJsonReport -->
<g id="edge40" class="edge"><title>file://Anonymous/data/barcode.fofn&#45;&gt;task://Anonymous/P_Barcode/barcodeJsonReport</title>
<path fill="none" stroke="black" d="M272.031,-343.799C254.721,-334.767 232.843,-323.353 212.092,-312.526"/>
<polygon fill="black" stroke="black" points="213.457,-309.291 202.972,-307.768 210.219,-315.497 213.457,-309.291"/>
</g>
<!-- task://Anonymous/P_Barcode/emitFastqs -->
<a xlink:href="../log/P_Barcode/emitFastqs.log">
<g id="node12" class="node"><title>task://Anonymous/P_Barcode/emitFastqs</title>
<polygon fill="#fed98e" stroke="#000000" points="523.497,-262.878 523.497,-289.122 459.941,-307.679 370.059,-307.679 306.503,-289.122 306.503,-262.878 370.059,-244.321 459.941,-244.321 523.497,-262.878"/>
<text text-anchor="middle" x="415" y="-280.2" font-family="Times New Roman" font-size="14.00">P_Barcode/emitFastqs</text>
<text text-anchor="middle" x="415" y="-263.4" font-family="Times New Roman" font-size="14.00">0:03:29</text>
</g>
</a>
<!-- file://Anonymous/data/barcode.fofn&#45;&gt;task://Anonymous/P_Barcode/emitFastqs -->
<g id="edge20" class="edge"><title>file://Anonymous/data/barcode.fofn&#45;&gt;task://Anonymous/P_Barcode/emitFastqs</title>
<path fill="none" stroke="black" d="M327.526,-343.799C338.875,-335.132 353.098,-324.27 366.758,-313.84"/>
<polygon fill="black" stroke="black" points="368.885,-316.619 374.709,-307.768 364.637,-311.056 368.885,-316.619"/>
</g>
<!-- task://Anonymous/P_AmpliconAnalysis/doSplitBarcodeAmpliconAnalysis -->
<a xlink:href="../log/P_AmpliconAnalysis/doSplitBarcodeAmpliconAnalysis.log">
<g id="node23" class="node"><title>task://Anonymous/P_AmpliconAnalysis/doSplitBarcodeAmpliconAnalysis</title>
<polygon fill="#ff0000" stroke="#440000" points="1208.2,-262.878 1208.2,-289.122 1031.76,-307.679 782.239,-307.679 605.8,-289.122 605.8,-262.878 782.239,-244.321 1031.76,-244.321 1208.2,-262.878"/>
<text text-anchor="middle" x="907" y="-280.2" font-family="Times New Roman" font-size="14.00">P_AmpliconAnalysis/doSplitBarcodeAmpliconAnalysis [FAILED]</text>
<text text-anchor="middle" x="907" y="-263.4" font-family="Times New Roman" font-size="14.00">3:30:06</text>
</g>
</a>
<!-- file://Anonymous/data/barcode.fofn&#45;&gt;task://Anonymous/P_AmpliconAnalysis/doSplitBarcodeAmpliconAnalysis -->
<g id="edge38" class="edge"><title>file://Anonymous/data/barcode.fofn&#45;&gt;task://Anonymous/P_AmpliconAnalysis/doSplitBarcodeAmpliconAnalysis</title>
<path fill="none" stroke="black" d="M362.469,-349.235C372.301,-347.376 382.43,-345.556 392,-344 492.249,-327.702 603.988,-312.774 697.695,-301.166"/>
<polygon fill="black" stroke="black" points="698.37,-304.61 707.866,-299.911 697.512,-297.663 698.37,-304.61"/>
</g>
<!-- task://Anonymous/P_Fetch/adapterRpt -->
<a xlink:href="../log/P_Fetch/adapterRpt.log">
<g id="node2" class="node"><title>task://Anonymous/P_Fetch/adapterRpt</title>
<polygon fill="#e78ac3" stroke="#000000" points="611.03,-434.878 611.03,-461.122 554.191,-479.679 473.809,-479.679 416.97,-461.122 416.97,-434.878 473.809,-416.321 554.191,-416.321 611.03,-434.878"/>
<text text-anchor="middle" x="514" y="-452.2" font-family="Times New Roman" font-size="14.00">P_Fetch/adapterRpt</text>
<text text-anchor="middle" x="514" y="-435.4" font-family="Times New Roman" font-size="14.00">0:00:52</text>
</g>
</a>
<!-- file://Anonymous/results/filter_reports_adapters.json -->
<a xlink:href="../results/filter_reports_adapters.json">
<g id="node9" class="node"><title>file://Anonymous/results/filter_reports_adapters.json</title>
<polygon fill="#eeeeee" stroke="black" points="610.492,-380 401.508,-380 401.508,-376 397.508,-376 397.508,-372 401.508,-372 401.508,-352 397.508,-352 397.508,-348 401.508,-348 401.508,-344 610.492,-344 610.492,-380"/>
<polyline fill="none" stroke="black" points="401.508,-376 405.508,-376 405.508,-372 401.508,-372 "/>
<polyline fill="none" stroke="black" points="401.508,-352 405.508,-352 405.508,-348 401.508,-348 "/>
<text text-anchor="middle" x="506" y="-357.8" font-family="Times New Roman" font-size="14.00">results/filter_reports_adapters.json</text>
</g>
</a>
<!-- task://Anonymous/P_Fetch/adapterRpt&#45;&gt;file://Anonymous/results/filter_reports_adapters.json -->
<g id="edge10" class="edge"><title>task://Anonymous/P_Fetch/adapterRpt&#45;&gt;file://Anonymous/results/filter_reports_adapters.json</title>
<path fill="none" stroke="black" d="M511.067,-416.198C510.26,-407.734 509.392,-398.614 508.605,-390.358"/>
<polygon fill="black" stroke="black" points="512.064,-389.752 507.631,-380.128 505.095,-390.415 512.064,-389.752"/>
</g>
<!-- file://Anonymous/data/amplicon_analysis_zmws.csv -->
<a xlink:href="../data/amplicon_analysis_zmws.csv">
<g id="node3" class="node"><title>file://Anonymous/data/amplicon_analysis_zmws.csv</title>
<polygon fill="#eeeeee" stroke="black" points="1546.42,-208 1337.58,-208 1337.58,-204 1333.58,-204 1333.58,-200 1337.58,-200 1337.58,-180 1333.58,-180 1333.58,-176 1337.58,-176 1337.58,-172 1546.42,-172 1546.42,-208"/>
<polyline fill="none" stroke="black" points="1337.58,-204 1341.58,-204 1341.58,-200 1337.58,-200 "/>
<polyline fill="none" stroke="black" points="1337.58,-180 1341.58,-180 1341.58,-176 1337.58,-176 "/>
<text text-anchor="middle" x="1442" y="-185.8" font-family="Times New Roman" font-size="14.00">data/amplicon_analysis_zmws.csv</text>
</g>
</a>
<!-- task://Anonymous/P_AmpliconAnalysis/ampliconAnalysisInputReport -->
<a xlink:href="../log/P_AmpliconAnalysis/ampliconAnalysisInputReport.log">
<g id="node8" class="node"><title>task://Anonymous/P_AmpliconAnalysis/ampliconAnalysisInputReport</title>
<polygon fill="#dddddd" stroke="#dddddd" points="1502.06,-90.878 1502.06,-117.122 1363.78,-135.679 1168.22,-135.679 1029.94,-117.122 1029.94,-90.878 1168.22,-72.3207 1363.78,-72.3207 1502.06,-90.878"/>
<text text-anchor="middle" x="1266" y="-108.2" font-family="Times New Roman" font-size="14.00">P_AmpliconAnalysis/ampliconAnalysisInputReport</text>
<text text-anchor="middle" x="1266" y="-91.4" font-family="Times New Roman" font-size="14.00">0:00:00</text>
</g>
</a>
<!-- file://Anonymous/data/amplicon_analysis_zmws.csv&#45;&gt;task://Anonymous/P_AmpliconAnalysis/ampliconAnalysisInputReport -->
<g id="edge2" class="edge"><title>file://Anonymous/data/amplicon_analysis_zmws.csv&#45;&gt;task://Anonymous/P_AmpliconAnalysis/ampliconAnalysisInputReport</title>
<path fill="none" stroke="black" d="M1405.96,-171.799C1386.78,-162.646 1362.48,-151.045 1339.52,-140.09"/>
<polygon fill="black" stroke="black" points="1341,-136.917 1330.47,-135.768 1337.98,-143.234 1341,-136.917"/>
</g>
<!-- file://Anonymous/data/amplicon_analysis_summary.csv -->
<a xlink:href="../data/amplicon_analysis_summary.csv">
<g id="node4" class="node"><title>file://Anonymous/data/amplicon_analysis_summary.csv</title>
<polygon fill="#eeeeee" stroke="black" points="691.004,-208 462.996,-208 462.996,-204 458.996,-204 458.996,-200 462.996,-200 462.996,-180 458.996,-180 458.996,-176 462.996,-176 462.996,-172 691.004,-172 691.004,-208"/>
<polyline fill="none" stroke="black" points="462.996,-204 466.996,-204 466.996,-200 462.996,-200 "/>
<polyline fill="none" stroke="black" points="462.996,-180 466.996,-180 466.996,-176 462.996,-176 "/>
<text text-anchor="middle" x="577" y="-185.8" font-family="Times New Roman" font-size="14.00">data/amplicon_analysis_summary.csv</text>
</g>
</a>
<!-- file://Anonymous/data/amplicon_analysis_summary.csv&#45;&gt;task://Anonymous/P_AmpliconAnalysis/ampliconAnalysisInputReport -->
<g id="edge6" class="edge"><title>file://Anonymous/data/amplicon_analysis_summary.csv&#45;&gt;task://Anonymous/P_AmpliconAnalysis/ampliconAnalysisInputReport</title>
<path fill="none" stroke="black" d="M691.239,-173.134C694.189,-172.749 697.113,-172.37 700,-172 826.106,-155.823 968.207,-139.007 1078.48,-126.268"/>
<polygon fill="black" stroke="black" points="1079.18,-129.71 1088.71,-125.087 1078.38,-122.757 1079.18,-129.71"/>
</g>
<!-- task://Anonymous/P_AmpliconAnalysis/ampliconAnalysisConsensusReport -->
<a xlink:href="../log/P_AmpliconAnalysis/ampliconAnalysisConsensusReport.log">
<g id="node14" class="node"><title>task://Anonymous/P_AmpliconAnalysis/ampliconAnalysisConsensusReport</title>
<polygon fill="#dddddd" stroke="#dddddd" points="835.888,-90.878 835.888,-117.122 684.235,-135.679 469.765,-135.679 318.112,-117.122 318.112,-90.878 469.765,-72.3207 684.235,-72.3207 835.888,-90.878"/>
<text text-anchor="middle" x="577" y="-108.2" font-family="Times New Roman" font-size="14.00">P_AmpliconAnalysis/ampliconAnalysisConsensusReport</text>
<text text-anchor="middle" x="577" y="-91.4" font-family="Times New Roman" font-size="14.00">0:00:00</text>
</g>
</a>
<!-- file://Anonymous/data/amplicon_analysis_summary.csv&#45;&gt;task://Anonymous/P_AmpliconAnalysis/ampliconAnalysisConsensusReport -->
<g id="edge30" class="edge"><title>file://Anonymous/data/amplicon_analysis_summary.csv&#45;&gt;task://Anonymous/P_AmpliconAnalysis/ampliconAnalysisConsensusReport</title>
<path fill="none" stroke="black" d="M577,-171.595C577,-164.123 577,-155.048 577,-146.032"/>
<polygon fill="black" stroke="black" points="580.5,-145.967 577,-135.967 573.5,-145.967 580.5,-145.967"/>
</g>
<!-- file://Anonymous/data/amplicon_analysis.csv -->
<a xlink:href="../data/amplicon_analysis.csv">
<g id="node5" class="node"><title>file://Anonymous/data/amplicon_analysis.csv</title>
<polygon fill="#eeeeee" stroke="black" points="878.179,-208 709.821,-208 709.821,-204 705.821,-204 705.821,-200 709.821,-200 709.821,-180 705.821,-180 705.821,-176 709.821,-176 709.821,-172 878.179,-172 878.179,-208"/>
<polyline fill="none" stroke="black" points="709.821,-204 713.821,-204 713.821,-200 709.821,-200 "/>
<polyline fill="none" stroke="black" points="709.821,-180 713.821,-180 713.821,-176 709.821,-176 "/>
<text text-anchor="middle" x="794" y="-185.8" font-family="Times New Roman" font-size="14.00">data/amplicon_analysis.csv</text>
</g>
</a>
<!-- file://Anonymous/data/amplicon_analysis_fasta.zip -->
<a xlink:href="../data/amplicon_analysis_fasta.zip">
<g id="node6" class="node"><title>file://Anonymous/data/amplicon_analysis_fasta.zip</title>
<polygon fill="none" stroke="black" stroke-dasharray="1,5" points="1098.58,-208 897.419,-208 897.419,-204 893.419,-204 893.419,-200 897.419,-200 897.419,-180 893.419,-180 893.419,-176 897.419,-176 897.419,-172 1098.58,-172 1098.58,-208"/>
<polyline fill="none" stroke="black" stroke-dasharray="1,5" points="897.419,-204 901.419,-204 901.419,-200 897.419,-200 "/>
<polyline fill="none" stroke="black" stroke-dasharray="1,5" points="897.419,-180 901.419,-180 901.419,-176 897.419,-176 "/>
<text text-anchor="middle" x="998" y="-185.8" font-family="Times New Roman" font-size="14.00">data/amplicon_analysis_fasta.zip</text>
</g>
</a>
<!-- file://Anonymous/data/amplicon_analysis_fastq.zip -->
<a xlink:href="../data/amplicon_analysis_fastq.zip">
<g id="node7" class="node"><title>file://Anonymous/data/amplicon_analysis_fastq.zip</title>
<polygon fill="none" stroke="black" stroke-dasharray="1,5" points="1319.17,-208 1116.83,-208 1116.83,-204 1112.83,-204 1112.83,-200 1116.83,-200 1116.83,-180 1112.83,-180 1112.83,-176 1116.83,-176 1116.83,-172 1319.17,-172 1319.17,-208"/>
<polyline fill="none" stroke="black" stroke-dasharray="1,5" points="1116.83,-204 1120.83,-204 1120.83,-200 1116.83,-200 "/>
<polyline fill="none" stroke="black" stroke-dasharray="1,5" points="1116.83,-180 1120.83,-180 1120.83,-176 1116.83,-176 "/>
<text text-anchor="middle" x="1218" y="-185.8" font-family="Times New Roman" font-size="14.00">data/amplicon_analysis_fastq.zip</text>
</g>
</a>
<!-- file://Anonymous/results/amplicon_analysis_input_report.json -->
<a xlink:href="../results/amplicon_analysis_input_report.json">
<g id="node11" class="node"><title>file://Anonymous/results/amplicon_analysis_input_report.json</title>
<polygon fill="none" stroke="black" stroke-dasharray="1,5" points="1397.26,-36 1134.74,-36 1134.74,-32 1130.74,-32 1130.74,-28 1134.74,-28 1134.74,-8 1130.74,-8 1130.74,-4 1134.74,-4 1134.74,-0 1397.26,-0 1397.26,-36"/>
<polyline fill="none" stroke="black" stroke-dasharray="1,5" points="1134.74,-32 1138.74,-32 1138.74,-28 1134.74,-28 "/>
<polyline fill="none" stroke="black" stroke-dasharray="1,5" points="1134.74,-8 1138.74,-8 1138.74,-4 1134.74,-4 "/>
<text text-anchor="middle" x="1266" y="-13.8" font-family="Times New Roman" font-size="14.00">results/amplicon_analysis_input_report.json</text>
</g>
</a>
<!-- task://Anonymous/P_AmpliconAnalysis/ampliconAnalysisInputReport&#45;&gt;file://Anonymous/results/amplicon_analysis_input_report.json -->
<g id="edge4" class="edge"><title>task://Anonymous/P_AmpliconAnalysis/ampliconAnalysisInputReport&#45;&gt;file://Anonymous/results/amplicon_analysis_input_report.json</title>
<path fill="none" stroke="black" d="M1266,-72.1985C1266,-63.7337 1266,-54.6142 1266,-46.3577"/>
<polygon fill="black" stroke="black" points="1269.5,-46.1284 1266,-36.1284 1262.5,-46.1284 1269.5,-46.1284"/>
</g>
<!-- file://Anonymous/results/barcode_report.json -->
<a xlink:href="../results/barcode_report.json">
<g id="node13" class="node"><title>file://Anonymous/results/barcode_report.json</title>
<polygon fill="#eeeeee" stroke="black" points="228.002,-208 59.9983,-208 59.9983,-204 55.9983,-204 55.9983,-200 59.9983,-200 59.9983,-180 55.9983,-180 55.9983,-176 59.9983,-176 59.9983,-172 228.002,-172 228.002,-208"/>
<polyline fill="none" stroke="black" points="59.9983,-204 63.9983,-204 63.9983,-200 59.9983,-200 "/>
<polyline fill="none" stroke="black" points="59.9983,-180 63.9983,-180 63.9983,-176 59.9983,-176 "/>
<text text-anchor="middle" x="144" y="-185.8" font-family="Times New Roman" font-size="14.00">results/barcode_report.json</text>
</g>
</a>
<!-- task://Anonymous/P_Barcode/barcodeJsonReport&#45;&gt;file://Anonymous/results/barcode_report.json -->
<g id="edge50" class="edge"><title>task://Anonymous/P_Barcode/barcodeJsonReport&#45;&gt;file://Anonymous/results/barcode_report.json</title>
<path fill="none" stroke="black" d="M144,-244.198C144,-235.734 144,-226.614 144,-218.358"/>
<polygon fill="black" stroke="black" points="147.5,-218.128 144,-208.128 140.5,-218.128 147.5,-218.128"/>
</g>
<!-- file://Anonymous/data/barcoded&#45;fastqs.tgz -->
<g id="node15" class="node"><title>file://Anonymous/data/barcoded&#45;fastqs.tgz</title>
<polygon fill="#eeeeee" stroke="black" points="444.327,-208 291.673,-208 291.673,-204 287.673,-204 287.673,-200 291.673,-200 291.673,-180 287.673,-180 287.673,-176 291.673,-176 291.673,-172 444.327,-172 444.327,-208"/>
<polyline fill="none" stroke="black" points="291.673,-204 295.673,-204 295.673,-200 291.673,-200 "/>
<polyline fill="none" stroke="black" points="291.673,-180 295.673,-180 295.673,-176 291.673,-176 "/>
<text text-anchor="middle" x="368" y="-185.8" font-family="Times New Roman" font-size="14.00">data/barcoded&#45;fastqs.tgz</text>
</g>
<!-- task://Anonymous/P_Barcode/emitFastqs&#45;&gt;file://Anonymous/data/barcoded&#45;fastqs.tgz -->
<g id="edge26" class="edge"><title>task://Anonymous/P_Barcode/emitFastqs&#45;&gt;file://Anonymous/data/barcoded&#45;fastqs.tgz</title>
<path fill="none" stroke="black" d="M397.766,-244.198C392.763,-235.258 387.353,-225.587 382.533,-216.975"/>
<polygon fill="black" stroke="black" points="385.521,-215.146 377.584,-208.128 379.412,-218.564 385.521,-215.146"/>
</g>
<!-- file://Anonymous/results/amplicon_analysis_consensus_report.json -->
<a xlink:href="../results/amplicon_analysis_consensus_report.json">
<g id="node16" class="node"><title>file://Anonymous/results/amplicon_analysis_consensus_report.json</title>
<polygon fill="none" stroke="black" stroke-dasharray="1,5" points="722.247,-36 431.753,-36 431.753,-32 427.753,-32 427.753,-28 431.753,-28 431.753,-8 427.753,-8 427.753,-4 431.753,-4 431.753,-0 722.247,-0 722.247,-36"/>
<polyline fill="none" stroke="black" stroke-dasharray="1,5" points="431.753,-32 435.753,-32 435.753,-28 431.753,-28 "/>
<polyline fill="none" stroke="black" stroke-dasharray="1,5" points="431.753,-8 435.753,-8 435.753,-4 431.753,-4 "/>
<text text-anchor="middle" x="577" y="-13.8" font-family="Times New Roman" font-size="14.00">results/amplicon_analysis_consensus_report.json</text>
</g>
</a>
<!-- task://Anonymous/P_AmpliconAnalysis/ampliconAnalysisConsensusReport&#45;&gt;file://Anonymous/results/amplicon_analysis_consensus_report.json -->
<g id="edge44" class="edge"><title>task://Anonymous/P_AmpliconAnalysis/ampliconAnalysisConsensusReport&#45;&gt;file://Anonymous/results/amplicon_analysis_consensus_report.json</title>
<path fill="none" stroke="black" d="M577,-72.1985C577,-63.7337 577,-54.6142 577,-46.3577"/>
<polygon fill="black" stroke="black" points="580.5,-46.1284 577,-36.1284 573.5,-46.1284 580.5,-46.1284"/>
</g>
<!-- file://Anonymous//home/UNIXHOME/bbowman/2014/09/HLA_Hackathon/Split_11/input.xml -->
<a xlink:href="..//home/UNIXHOME/bbowman/2014/09/HLA_Hackathon/Split_11/input.xml">
<g id="node17" class="node"><title>file://Anonymous//home/UNIXHOME/bbowman/2014/09/HLA_Hackathon/Split_11/input.xml</title>
<polygon fill="#eeeeee" stroke="black" points="800.168,-724 351.832,-724 351.832,-720 347.832,-720 347.832,-716 351.832,-716 351.832,-696 347.832,-696 347.832,-692 351.832,-692 351.832,-688 800.168,-688 800.168,-724"/>
<polyline fill="none" stroke="black" points="351.832,-720 355.832,-720 355.832,-716 351.832,-716 "/>
<polyline fill="none" stroke="black" points="351.832,-696 355.832,-696 355.832,-692 351.832,-692 "/>
<text text-anchor="middle" x="576" y="-701.8" font-family="Times New Roman" font-size="14.00">/home/UNIXHOME/bbowman/2014/09/HLA_Hackathon/Split_11/input.xml</text>
</g>
</a>
<!-- task://Anonymous/P_Fetch/toFofn -->
<a xlink:href="../log/P_Fetch/toFofn.log">
<g id="node18" class="node"><title>task://Anonymous/P_Fetch/toFofn</title>
<polygon fill="#e78ac3" stroke="#000000" points="654.375,-606.878 654.375,-633.122 608.464,-651.679 543.536,-651.679 497.625,-633.122 497.625,-606.878 543.536,-588.321 608.464,-588.321 654.375,-606.878"/>
<text text-anchor="middle" x="576" y="-624.2" font-family="Times New Roman" font-size="14.00">P_Fetch/toFofn</text>
<text text-anchor="middle" x="576" y="-607.4" font-family="Times New Roman" font-size="14.00">0:00:00</text>
</g>
</a>
<!-- file://Anonymous//home/UNIXHOME/bbowman/2014/09/HLA_Hackathon/Split_11/input.xml&#45;&gt;task://Anonymous/P_Fetch/toFofn -->
<g id="edge52" class="edge"><title>file://Anonymous//home/UNIXHOME/bbowman/2014/09/HLA_Hackathon/Split_11/input.xml&#45;&gt;task://Anonymous/P_Fetch/toFofn</title>
<path fill="none" stroke="black" d="M576,-687.595C576,-680.123 576,-671.048 576,-662.032"/>
<polygon fill="black" stroke="black" points="579.5,-661.967 576,-651.967 572.5,-661.967 579.5,-661.967"/>
</g>
<!-- file://Anonymous/input.fofn -->
<a xlink:href="../input.fofn">
<g id="node20" class="node"><title>file://Anonymous/input.fofn</title>
<polygon fill="#eeeeee" stroke="black" points="611.205,-552 540.795,-552 540.795,-548 536.795,-548 536.795,-544 540.795,-544 540.795,-524 536.795,-524 536.795,-520 540.795,-520 540.795,-516 611.205,-516 611.205,-552"/>
<polyline fill="none" stroke="black" points="540.795,-548 544.795,-548 544.795,-544 540.795,-544 "/>
<polyline fill="none" stroke="black" points="540.795,-524 544.795,-524 544.795,-520 540.795,-520 "/>
<text text-anchor="middle" x="576" y="-529.8" font-family="Times New Roman" font-size="14.00">input.fofn</text>
</g>
</a>
<!-- task://Anonymous/P_Fetch/toFofn&#45;&gt;file://Anonymous/input.fofn -->
<g id="edge36" class="edge"><title>task://Anonymous/P_Fetch/toFofn&#45;&gt;file://Anonymous/input.fofn</title>
<path fill="none" stroke="black" d="M576,-588.198C576,-579.734 576,-570.614 576,-562.358"/>
<polygon fill="black" stroke="black" points="579.5,-562.128 576,-552.128 572.5,-562.128 579.5,-562.128"/>
</g>
<!-- task://Anonymous/P_Fetch/overviewRpt -->
<a xlink:href="../log/P_Fetch/overviewRpt.log">
<g id="node19" class="node"><title>task://Anonymous/P_Fetch/overviewRpt</title>
<polygon fill="#e78ac3" stroke="#000000" points="878.534,-434.878 878.534,-461.122 816.714,-479.679 729.286,-479.679 667.466,-461.122 667.466,-434.878 729.286,-416.321 816.714,-416.321 878.534,-434.878"/>
<text text-anchor="middle" x="773" y="-452.2" font-family="Times New Roman" font-size="14.00">P_Fetch/overviewRpt</text>
<text text-anchor="middle" x="773" y="-435.4" font-family="Times New Roman" font-size="14.00">0:00:03</text>
</g>
</a>
<!-- file://Anonymous/results/overview.json -->
<a xlink:href="../results/overview.json">
<g id="node22" class="node"><title>file://Anonymous/results/overview.json</title>
<polygon fill="#eeeeee" stroke="black" points="840.518,-380 705.482,-380 705.482,-376 701.482,-376 701.482,-372 705.482,-372 705.482,-352 701.482,-352 701.482,-348 705.482,-348 705.482,-344 840.518,-344 840.518,-380"/>
<polyline fill="none" stroke="black" points="705.482,-376 709.482,-376 709.482,-372 705.482,-372 "/>
<polyline fill="none" stroke="black" points="705.482,-352 709.482,-352 709.482,-348 705.482,-348 "/>
<text text-anchor="middle" x="773" y="-357.8" font-family="Times New Roman" font-size="14.00">results/overview.json</text>
</g>
</a>
<!-- task://Anonymous/P_Fetch/overviewRpt&#45;&gt;file://Anonymous/results/overview.json -->
<g id="edge12" class="edge"><title>task://Anonymous/P_Fetch/overviewRpt&#45;&gt;file://Anonymous/results/overview.json</title>
<path fill="none" stroke="black" d="M773,-416.198C773,-407.734 773,-398.614 773,-390.358"/>
<polygon fill="black" stroke="black" points="776.5,-390.128 773,-380.128 769.5,-390.128 776.5,-390.128"/>
</g>
<!-- file://Anonymous/input.fofn&#45;&gt;task://Anonymous/P_Fetch/adapterRpt -->
<g id="edge32" class="edge"><title>file://Anonymous/input.fofn&#45;&gt;task://Anonymous/P_Fetch/adapterRpt</title>
<path fill="none" stroke="black" d="M563.154,-515.595C557.283,-507.641 550.071,-497.87 542.999,-488.289"/>
<polygon fill="black" stroke="black" points="545.611,-485.934 536.857,-479.967 539.979,-490.091 545.611,-485.934"/>
</g>
<!-- file://Anonymous/input.fofn&#45;&gt;task://Anonymous/P_Barcode/barcodeJsonReport -->
<g id="edge42" class="edge"><title>file://Anonymous/input.fofn&#45;&gt;task://Anonymous/P_Barcode/barcodeJsonReport</title>
<path fill="none" stroke="black" d="M540.641,-530.96C445.44,-525.125 189.121,-507.033 163,-480 121.839,-437.402 126.372,-363.753 134.448,-317.85"/>
<polygon fill="black" stroke="black" points="137.904,-318.413 136.323,-307.936 131.026,-317.112 137.904,-318.413"/>
</g>
<!-- file://Anonymous/input.fofn&#45;&gt;task://Anonymous/P_Barcode/emitFastqs -->
<g id="edge46" class="edge"><title>file://Anonymous/input.fofn&#45;&gt;task://Anonymous/P_Barcode/emitFastqs</title>
<path fill="none" stroke="black" d="M595.474,-515.918C604.821,-506.403 615.046,-493.723 620,-480 622.136,-474.084 619.675,-344.918 619,-344 598.559,-316.18 566.211,-299.72 533.245,-290.041"/>
<polygon fill="black" stroke="black" points="534.045,-286.632 523.476,-287.369 532.198,-293.384 534.045,-286.632"/>
</g>
<!-- file://Anonymous/input.fofn&#45;&gt;task://Anonymous/P_Fetch/overviewRpt -->
<g id="edge18" class="edge"><title>file://Anonymous/input.fofn&#45;&gt;task://Anonymous/P_Fetch/overviewRpt</title>
<path fill="none" stroke="black" d="M611.22,-517.982C636.695,-507.12 671.964,-492.081 703.071,-478.818"/>
<polygon fill="black" stroke="black" points="704.75,-481.907 712.576,-474.765 702.004,-475.467 704.75,-481.907"/>
</g>
<!-- task://Anonymous/P_Barcode/labelZMWs -->
<a xlink:href="../log/P_Barcode/labelZMWs.log">
<g id="node21" class="node"><title>task://Anonymous/P_Barcode/labelZMWs</title>
<polygon fill="#fed98e" stroke="#000000" points="398.119,-434.878 398.119,-461.122 331.856,-479.679 238.144,-479.679 171.881,-461.122 171.881,-434.878 238.144,-416.321 331.856,-416.321 398.119,-434.878"/>
<text text-anchor="middle" x="285" y="-452.2" font-family="Times New Roman" font-size="14.00">P_Barcode/labelZMWs</text>
<text text-anchor="middle" x="285" y="-435.4" font-family="Times New Roman" font-size="14.00">0:03:02</text>
</g>
</a>
<!-- file://Anonymous/input.fofn&#45;&gt;task://Anonymous/P_Barcode/labelZMWs -->
<g id="edge24" class="edge"><title>file://Anonymous/input.fofn&#45;&gt;task://Anonymous/P_Barcode/labelZMWs</title>
<path fill="none" stroke="black" d="M540.609,-522.784C498.942,-510.756 428.262,-490.354 371.774,-474.048"/>
<polygon fill="black" stroke="black" points="372.7,-470.672 362.121,-471.262 370.758,-477.398 372.7,-470.672"/>
</g>
<!-- file://Anonymous/input.fofn&#45;&gt;task://Anonymous/P_AmpliconAnalysis/doSplitBarcodeAmpliconAnalysis -->
<g id="edge34" class="edge"><title>file://Anonymous/input.fofn&#45;&gt;task://Anonymous/P_AmpliconAnalysis/doSplitBarcodeAmpliconAnalysis</title>
<path fill="none" stroke="black" d="M611.243,-532.171C684.627,-529.656 850.082,-519.621 887,-480 927.4,-436.642 923.528,-363.226 916.001,-317.576"/>
<polygon fill="black" stroke="black" points="919.445,-316.953 914.248,-307.72 912.554,-318.179 919.445,-316.953"/>
</g>
<!-- task://Anonymous/P_Barcode/labelZMWs&#45;&gt;file://Anonymous/data/barcode.fofn -->
<g id="edge8" class="edge"><title>task://Anonymous/P_Barcode/labelZMWs&#45;&gt;file://Anonymous/data/barcode.fofn</title>
<path fill="none" stroke="black" d="M292.334,-416.198C294.372,-407.639 296.569,-398.409 298.552,-390.08"/>
<polygon fill="black" stroke="black" points="302.01,-390.667 300.922,-380.128 295.201,-389.046 302.01,-390.667"/>
</g>
<!-- task://Anonymous/P_AmpliconAnalysis/doSplitBarcodeAmpliconAnalysis&#45;&gt;file://Anonymous/data/amplicon_analysis_zmws.csv -->
<g id="edge48" class="edge"><title>task://Anonymous/P_AmpliconAnalysis/doSplitBarcodeAmpliconAnalysis&#45;&gt;file://Anonymous/data/amplicon_analysis_zmws.csv</title>
<path fill="none" stroke="black" d="M1074.08,-248.767C1156.36,-235.848 1253.47,-220.601 1327.26,-209.016"/>
<polygon fill="black" stroke="black" points="1328.17,-212.415 1337.51,-207.406 1327.09,-205.499 1328.17,-212.415"/>
</g>
<!-- task://Anonymous/P_AmpliconAnalysis/doSplitBarcodeAmpliconAnalysis&#45;&gt;file://Anonymous/data/amplicon_analysis_summary.csv -->
<g id="edge16" class="edge"><title>task://Anonymous/P_AmpliconAnalysis/doSplitBarcodeAmpliconAnalysis&#45;&gt;file://Anonymous/data/amplicon_analysis_summary.csv</title>
<path fill="none" stroke="black" d="M786.462,-244.318C742.161,-233.041 693.239,-220.588 653.823,-210.555"/>
<polygon fill="black" stroke="black" points="654.57,-207.134 644.016,-208.059 652.843,-213.917 654.57,-207.134"/>
</g>
<!-- task://Anonymous/P_AmpliconAnalysis/doSplitBarcodeAmpliconAnalysis&#45;&gt;file://Anonymous/data/amplicon_analysis.csv -->
<g id="edge22" class="edge"><title>task://Anonymous/P_AmpliconAnalysis/doSplitBarcodeAmpliconAnalysis&#45;&gt;file://Anonymous/data/amplicon_analysis.csv</title>
<path fill="none" stroke="black" d="M865.565,-244.198C852.258,-234.307 837.749,-223.522 825.295,-214.264"/>
<polygon fill="black" stroke="black" points="827.155,-211.285 817.042,-208.128 822.979,-216.903 827.155,-211.285"/>
</g>
<!-- task://Anonymous/P_AmpliconAnalysis/doSplitBarcodeAmpliconAnalysis&#45;&gt;file://Anonymous/data/amplicon_analysis_fasta.zip -->
<g id="edge28" class="edge"><title>task://Anonymous/P_AmpliconAnalysis/doSplitBarcodeAmpliconAnalysis&#45;&gt;file://Anonymous/data/amplicon_analysis_fasta.zip</title>
<path fill="none" stroke="black" d="M940.368,-244.198C950.775,-234.592 962.095,-224.143 971.926,-215.069"/>
<polygon fill="black" stroke="black" points="974.47,-217.483 979.444,-208.128 969.722,-212.339 974.47,-217.483"/>
</g>
<!-- task://Anonymous/P_AmpliconAnalysis/doSplitBarcodeAmpliconAnalysis&#45;&gt;file://Anonymous/data/amplicon_analysis_fastq.zip -->
<g id="edge14" class="edge"><title>task://Anonymous/P_AmpliconAnalysis/doSplitBarcodeAmpliconAnalysis&#45;&gt;file://Anonymous/data/amplicon_analysis_fastq.zip</title>
<path fill="none" stroke="black" d="M1020.6,-244.318C1062.17,-233.089 1108.06,-220.694 1145.13,-210.683"/>
<polygon fill="black" stroke="black" points="1146.1,-214.045 1154.84,-208.059 1144.28,-207.287 1146.1,-214.045"/>
</g>
</g>
</svg>
