<?xml version="1.0" encoding="UTF-8" standalone="no"?>
<!DOCTYPE svg PUBLIC "-//W3C//DTD SVG 1.1//EN"
"http://www.w3.org/Graphics/SVG/1.1/DTD/svg11.dtd">
<!-- Generated by graphviz version 2.28.0 (20140729.0816)
-->
<!-- Title: workflow://Anonymous/Workflow Pages: 1 -->
<svg width="2800px" height="1540px"
viewBox="0.00 0.00 1698.00 732.00" xmlns="http://www.w3.org/2000/svg" xmlns:xlink="http://www.w3.org/1999/xlink">
<g id="graph1" class="graph" transform="scale(1 1) rotate(0) translate(4 728)">
<title>workflow://Anonymous/Workflow</title>
<polygon fill="white" stroke="white" points="-4,5 -4,-728 1695,-728 1695,5 -4,5"/>
<!-- file://Anonymous/data/amplicon_analysis_zmws.csv -->
<a xlink:href="../data/amplicon_analysis_zmws.csv">
<g id="node1" class="node"><title>file://Anonymous/data/amplicon_analysis_zmws.csv</title>
<polygon fill="#eeeeee" stroke="black" points="1179.42,-208 970.58,-208 970.58,-204 966.58,-204 966.58,-200 970.58,-200 970.58,-180 966.58,-180 966.58,-176 970.58,-176 970.58,-172 1179.42,-172 1179.42,-208"/>
<polyline fill="none" stroke="black" points="970.58,-204 974.58,-204 974.58,-200 970.58,-200 "/>
<polyline fill="none" stroke="black" points="970.58,-180 974.58,-180 974.58,-176 970.58,-176 "/>
<text text-anchor="middle" x="1075" y="-185.8" font-family="Times New Roman" font-size="14.00">data/amplicon_analysis_zmws.csv</text>
</g>
</a>
<!-- task://Anonymous/P_AmpliconAnalysis/ampliconAnalysisInputReport -->
<a xlink:href="../log/P_AmpliconAnalysis/ampliconAnalysisInputReport.log">
<g id="node4" class="node"><title>task://Anonymous/P_AmpliconAnalysis/ampliconAnalysisInputReport</title>
<polygon fill="#aaaaaa" stroke="#000000" points="1159.06,-90.878 1159.06,-117.122 1020.78,-135.679 825.219,-135.679 686.937,-117.122 686.937,-90.878 825.219,-72.3207 1020.78,-72.3207 1159.06,-90.878"/>
<text text-anchor="middle" x="923" y="-108.2" font-family="Times New Roman" font-size="14.00">P_AmpliconAnalysis/ampliconAnalysisInputReport</text>
<text text-anchor="middle" x="923" y="-91.4" font-family="Times New Roman" font-size="14.00">0:00:03</text>
</g>
</a>
<!-- file://Anonymous/data/amplicon_analysis_zmws.csv&#45;&gt;task://Anonymous/P_AmpliconAnalysis/ampliconAnalysisInputReport -->
<g id="edge28" class="edge"><title>file://Anonymous/data/amplicon_analysis_zmws.csv&#45;&gt;task://Anonymous/P_AmpliconAnalysis/ampliconAnalysisInputReport</title>
<path fill="none" stroke="black" d="M1043.87,-171.799C1027.6,-162.808 1007.06,-151.455 987.549,-140.672"/>
<polygon fill="black" stroke="black" points="989.121,-137.542 978.675,-135.768 985.735,-143.668 989.121,-137.542"/>
</g>
<!-- task://Anonymous/P_Fetch/adapterRpt -->
<a xlink:href="../log/P_Fetch/adapterRpt.log">
<g id="node2" class="node"><title>task://Anonymous/P_Fetch/adapterRpt</title>
<polygon fill="#e78ac3" stroke="#000000" points="1384.03,-434.878 1384.03,-461.122 1327.19,-479.679 1246.81,-479.679 1189.97,-461.122 1189.97,-434.878 1246.81,-416.321 1327.19,-416.321 1384.03,-434.878"/>
<text text-anchor="middle" x="1287" y="-452.2" font-family="Times New Roman" font-size="14.00">P_Fetch/adapterRpt</text>
<text text-anchor="middle" x="1287" y="-435.4" font-family="Times New Roman" font-size="14.00">0:00:58</text>
</g>
</a>
<!-- file://Anonymous/results/filter_reports_adapters.json -->
<a xlink:href="../results/filter_reports_adapters.json">
<g id="node5" class="node"><title>file://Anonymous/results/filter_reports_adapters.json</title>
<polygon fill="#eeeeee" stroke="black" points="1383.49,-380 1174.51,-380 1174.51,-376 1170.51,-376 1170.51,-372 1174.51,-372 1174.51,-352 1170.51,-352 1170.51,-348 1174.51,-348 1174.51,-344 1383.49,-344 1383.49,-380"/>
<polyline fill="none" stroke="black" points="1174.51,-376 1178.51,-376 1178.51,-372 1174.51,-372 "/>
<polyline fill="none" stroke="black" points="1174.51,-352 1178.51,-352 1178.51,-348 1174.51,-348 "/>
<text text-anchor="middle" x="1279" y="-357.8" font-family="Times New Roman" font-size="14.00">results/filter_reports_adapters.json</text>
</g>
</a>
<!-- task://Anonymous/P_Fetch/adapterRpt&#45;&gt;file://Anonymous/results/filter_reports_adapters.json -->
<g id="edge16" class="edge"><title>task://Anonymous/P_Fetch/adapterRpt&#45;&gt;file://Anonymous/results/filter_reports_adapters.json</title>
<path fill="none" stroke="black" d="M1284.07,-416.198C1283.26,-407.734 1282.39,-398.614 1281.61,-390.358"/>
<polygon fill="black" stroke="black" points="1285.06,-389.752 1280.63,-380.128 1278.1,-390.415 1285.06,-389.752"/>
</g>
<!-- file://Anonymous/results/barcode_report.json -->
<a xlink:href="../results/barcode_report.json">
<g id="node3" class="node"><title>file://Anonymous/results/barcode_report.json</title>
<polygon fill="#eeeeee" stroke="black" points="1559,-208 1391,-208 1391,-204 1387,-204 1387,-200 1391,-200 1391,-180 1387,-180 1387,-176 1391,-176 1391,-172 1559,-172 1559,-208"/>
<polyline fill="none" stroke="black" points="1391,-204 1395,-204 1395,-200 1391,-200 "/>
<polyline fill="none" stroke="black" points="1391,-180 1395,-180 1395,-176 1391,-176 "/>
<text text-anchor="middle" x="1475" y="-185.8" font-family="Times New Roman" font-size="14.00">results/barcode_report.json</text>
</g>
</a>
<!-- file://Anonymous/results/amplicon_analysis_input_report.json -->
<a xlink:href="../results/amplicon_analysis_input_report.json">
<g id="node7" class="node"><title>file://Anonymous/results/amplicon_analysis_input_report.json</title>
<polygon fill="#eeeeee" stroke="black" points="1054.26,-36 791.74,-36 791.74,-32 787.74,-32 787.74,-28 791.74,-28 791.74,-8 787.74,-8 787.74,-4 791.74,-4 791.74,-0 1054.26,-0 1054.26,-36"/>
<polyline fill="none" stroke="black" points="791.74,-32 795.74,-32 795.74,-28 791.74,-28 "/>
<polyline fill="none" stroke="black" points="791.74,-8 795.74,-8 795.74,-4 791.74,-4 "/>
<text text-anchor="middle" x="923" y="-13.8" font-family="Times New Roman" font-size="14.00">results/amplicon_analysis_input_report.json</text>
</g>
</a>
<!-- task://Anonymous/P_AmpliconAnalysis/ampliconAnalysisInputReport&#45;&gt;file://Anonymous/results/amplicon_analysis_input_report.json -->
<g id="edge4" class="edge"><title>task://Anonymous/P_AmpliconAnalysis/ampliconAnalysisInputReport&#45;&gt;file://Anonymous/results/amplicon_analysis_input_report.json</title>
<path fill="none" stroke="black" d="M923,-72.1985C923,-63.7337 923,-54.6142 923,-46.3577"/>
<polygon fill="black" stroke="black" points="926.5,-46.1284 923,-36.1284 919.5,-46.1284 926.5,-46.1284"/>
</g>
<!-- task://Anonymous/P_Barcode/emitFastqs -->
<a xlink:href="../log/P_Barcode/emitFastqs.log">
<g id="node6" class="node"><title>task://Anonymous/P_Barcode/emitFastqs</title>
<polygon fill="#fed98e" stroke="#000000" points="1312.5,-262.878 1312.5,-289.122 1248.94,-307.679 1159.06,-307.679 1095.5,-289.122 1095.5,-262.878 1159.06,-244.321 1248.94,-244.321 1312.5,-262.878"/>
<text text-anchor="middle" x="1204" y="-280.2" font-family="Times New Roman" font-size="14.00">P_Barcode/emitFastqs</text>
<text text-anchor="middle" x="1204" y="-263.4" font-family="Times New Roman" font-size="14.00">0:03:16</text>
</g>
</a>
<!-- file://Anonymous/data/barcoded&#45;fastqs.tgz -->
<g id="node9" class="node"><title>file://Anonymous/data/barcoded&#45;fastqs.tgz</title>
<polygon fill="#eeeeee" stroke="black" points="1350.33,-208 1197.67,-208 1197.67,-204 1193.67,-204 1193.67,-200 1197.67,-200 1197.67,-180 1193.67,-180 1193.67,-176 1197.67,-176 1197.67,-172 1350.33,-172 1350.33,-208"/>
<polyline fill="none" stroke="black" points="1197.67,-204 1201.67,-204 1201.67,-200 1197.67,-200 "/>
<polyline fill="none" stroke="black" points="1197.67,-180 1201.67,-180 1201.67,-176 1197.67,-176 "/>
<text text-anchor="middle" x="1274" y="-185.8" font-family="Times New Roman" font-size="14.00">data/barcoded&#45;fastqs.tgz</text>
</g>
<!-- task://Anonymous/P_Barcode/emitFastqs&#45;&gt;file://Anonymous/data/barcoded&#45;fastqs.tgz -->
<g id="edge10" class="edge"><title>task://Anonymous/P_Barcode/emitFastqs&#45;&gt;file://Anonymous/data/barcoded&#45;fastqs.tgz</title>
<path fill="none" stroke="black" d="M1229.67,-244.198C1237.44,-234.878 1245.86,-224.763 1253.27,-215.881"/>
<polygon fill="black" stroke="black" points="1256.01,-218.051 1259.73,-208.128 1250.64,-213.57 1256.01,-218.051"/>
</g>
<!-- task://Anonymous/P_AmpliconAnalysis/ampliconAnalysisConsensusReport -->
<a xlink:href="../log/P_AmpliconAnalysis/ampliconAnalysisConsensusReport.log">
<g id="node8" class="node"><title>task://Anonymous/P_AmpliconAnalysis/ampliconAnalysisConsensusReport</title>
<polygon fill="#aaaaaa" stroke="#000000" points="517.888,-90.878 517.888,-117.122 366.235,-135.679 151.765,-135.679 0.111623,-117.122 0.111623,-90.878 151.765,-72.3207 366.235,-72.3207 517.888,-90.878"/>
<text text-anchor="middle" x="259" y="-108.2" font-family="Times New Roman" font-size="14.00">P_AmpliconAnalysis/ampliconAnalysisConsensusReport</text>
<text text-anchor="middle" x="259" y="-91.4" font-family="Times New Roman" font-size="14.00">0:00:03</text>
</g>
</a>
<!-- file://Anonymous/results/amplicon_analysis_consensus_report.json -->
<a xlink:href="../results/amplicon_analysis_consensus_report.json">
<g id="node10" class="node"><title>file://Anonymous/results/amplicon_analysis_consensus_report.json</title>
<polygon fill="#eeeeee" stroke="black" points="404.247,-36 113.753,-36 113.753,-32 109.753,-32 109.753,-28 113.753,-28 113.753,-8 109.753,-8 109.753,-4 113.753,-4 113.753,-0 404.247,-0 404.247,-36"/>
<polyline fill="none" stroke="black" points="113.753,-32 117.753,-32 117.753,-28 113.753,-28 "/>
<polyline fill="none" stroke="black" points="113.753,-8 117.753,-8 117.753,-4 113.753,-4 "/>
<text text-anchor="middle" x="259" y="-13.8" font-family="Times New Roman" font-size="14.00">results/amplicon_analysis_consensus_report.json</text>
</g>
</a>
<!-- task://Anonymous/P_AmpliconAnalysis/ampliconAnalysisConsensusReport&#45;&gt;file://Anonymous/results/amplicon_analysis_consensus_report.json -->
<g id="edge14" class="edge"><title>task://Anonymous/P_AmpliconAnalysis/ampliconAnalysisConsensusReport&#45;&gt;file://Anonymous/results/amplicon_analysis_consensus_report.json</title>
<path fill="none" stroke="black" d="M259,-72.1985C259,-63.7337 259,-54.6142 259,-46.3577"/>
<polygon fill="black" stroke="black" points="262.5,-46.1284 259,-36.1284 255.5,-46.1284 262.5,-46.1284"/>
</g>
<!-- file://Anonymous//home/UNIXHOME/bbowman/2014/09/HLA_Hackathon/Normal_11/input.xml -->
<a xlink:href="..//home/UNIXHOME/bbowman/2014/09/HLA_Hackathon/Normal_11/input.xml">
<g id="node11" class="node"><title>file://Anonymous//home/UNIXHOME/bbowman/2014/09/HLA_Hackathon/Normal_11/input.xml</title>
<polygon fill="#eeeeee" stroke="black" points="1581.4,-724 1116.6,-724 1116.6,-720 1112.6,-720 1112.6,-716 1116.6,-716 1116.6,-696 1112.6,-696 1112.6,-692 1116.6,-692 1116.6,-688 1581.4,-688 1581.4,-724"/>
<polyline fill="none" stroke="black" points="1116.6,-720 1120.6,-720 1120.6,-716 1116.6,-716 "/>
<polyline fill="none" stroke="black" points="1116.6,-696 1120.6,-696 1120.6,-692 1116.6,-692 "/>
<text text-anchor="middle" x="1349" y="-701.8" font-family="Times New Roman" font-size="14.00">/home/UNIXHOME/bbowman/2014/09/HLA_Hackathon/Normal_11/input.xml</text>
</g>
</a>
<!-- task://Anonymous/P_Fetch/toFofn -->
<a xlink:href="../log/P_Fetch/toFofn.log">
<g id="node21" class="node"><title>task://Anonymous/P_Fetch/toFofn</title>
<polygon fill="#e78ac3" stroke="#000000" points="1427.38,-606.878 1427.38,-633.122 1381.46,-651.679 1316.54,-651.679 1270.62,-633.122 1270.62,-606.878 1316.54,-588.321 1381.46,-588.321 1427.38,-606.878"/>
<text text-anchor="middle" x="1349" y="-624.2" font-family="Times New Roman" font-size="14.00">P_Fetch/toFofn</text>
<text text-anchor="middle" x="1349" y="-607.4" font-family="Times New Roman" font-size="14.00">0:00:00</text>
</g>
</a>
<!-- file://Anonymous//home/UNIXHOME/bbowman/2014/09/HLA_Hackathon/Normal_11/input.xml&#45;&gt;task://Anonymous/P_Fetch/toFofn -->
<g id="edge6" class="edge"><title>file://Anonymous//home/UNIXHOME/bbowman/2014/09/HLA_Hackathon/Normal_11/input.xml&#45;&gt;task://Anonymous/P_Fetch/toFofn</title>
<path fill="none" stroke="black" d="M1349,-687.595C1349,-680.123 1349,-671.048 1349,-662.032"/>
<polygon fill="black" stroke="black" points="1352.5,-661.967 1349,-651.967 1345.5,-661.967 1352.5,-661.967"/>
</g>
<!-- task://Anonymous/P_Fetch/overviewRpt -->
<a xlink:href="../log/P_Fetch/overviewRpt.log">
<g id="node12" class="node"><title>task://Anonymous/P_Fetch/overviewRpt</title>
<polygon fill="#e78ac3" stroke="#000000" points="1689.53,-434.878 1689.53,-461.122 1627.71,-479.679 1540.29,-479.679 1478.47,-461.122 1478.47,-434.878 1540.29,-416.321 1627.71,-416.321 1689.53,-434.878"/>
<text text-anchor="middle" x="1584" y="-452.2" font-family="Times New Roman" font-size="14.00">P_Fetch/overviewRpt</text>
<text text-anchor="middle" x="1584" y="-435.4" font-family="Times New Roman" font-size="14.00">0:00:02</text>
</g>
</a>
<!-- file://Anonymous/results/overview.json -->
<a xlink:href="../results/overview.json">
<g id="node15" class="node"><title>file://Anonymous/results/overview.json</title>
<polygon fill="#eeeeee" stroke="black" points="1651.52,-380 1516.48,-380 1516.48,-376 1512.48,-376 1512.48,-372 1516.48,-372 1516.48,-352 1512.48,-352 1512.48,-348 1516.48,-348 1516.48,-344 1651.52,-344 1651.52,-380"/>
<polyline fill="none" stroke="black" points="1516.48,-376 1520.48,-376 1520.48,-372 1516.48,-372 "/>
<polyline fill="none" stroke="black" points="1516.48,-352 1520.48,-352 1520.48,-348 1516.48,-348 "/>
<text text-anchor="middle" x="1584" y="-357.8" font-family="Times New Roman" font-size="14.00">results/overview.json</text>
</g>
</a>
<!-- task://Anonymous/P_Fetch/overviewRpt&#45;&gt;file://Anonymous/results/overview.json -->
<g id="edge18" class="edge"><title>task://Anonymous/P_Fetch/overviewRpt&#45;&gt;file://Anonymous/results/overview.json</title>
<path fill="none" stroke="black" d="M1584,-416.198C1584,-407.734 1584,-398.614 1584,-390.358"/>
<polygon fill="black" stroke="black" points="1587.5,-390.128 1584,-380.128 1580.5,-390.128 1587.5,-390.128"/>
</g>
<!-- file://Anonymous/input.fofn -->
<a xlink:href="../input.fofn">
<g id="node13" class="node"><title>file://Anonymous/input.fofn</title>
<polygon fill="#eeeeee" stroke="black" points="1384.21,-552 1313.79,-552 1313.79,-548 1309.79,-548 1309.79,-544 1313.79,-544 1313.79,-524 1309.79,-524 1309.79,-520 1313.79,-520 1313.79,-516 1384.21,-516 1384.21,-552"/>
<polyline fill="none" stroke="black" points="1313.79,-548 1317.79,-548 1317.79,-544 1313.79,-544 "/>
<polyline fill="none" stroke="black" points="1313.79,-524 1317.79,-524 1317.79,-520 1313.79,-520 "/>
<text text-anchor="middle" x="1349" y="-529.8" font-family="Times New Roman" font-size="14.00">input.fofn</text>
</g>
</a>
<!-- file://Anonymous/input.fofn&#45;&gt;task://Anonymous/P_Fetch/adapterRpt -->
<g id="edge22" class="edge"><title>file://Anonymous/input.fofn&#45;&gt;task://Anonymous/P_Fetch/adapterRpt</title>
<path fill="none" stroke="black" d="M1336.15,-515.595C1330.28,-507.641 1323.07,-497.87 1316,-488.289"/>
<polygon fill="black" stroke="black" points="1318.61,-485.934 1309.86,-479.967 1312.98,-490.091 1318.61,-485.934"/>
</g>
<!-- file://Anonymous/input.fofn&#45;&gt;task://Anonymous/P_Barcode/emitFastqs -->
<g id="edge30" class="edge"><title>file://Anonymous/input.fofn&#45;&gt;task://Anonymous/P_Barcode/emitFastqs</title>
<path fill="none" stroke="black" d="M1368.47,-515.918C1377.82,-506.403 1388.05,-493.723 1393,-480 1395.13,-474.098 1392.67,-344.934 1392,-344 1385.31,-334.658 1335.11,-317.016 1288.26,-302.179"/>
<polygon fill="black" stroke="black" points="1289.23,-298.816 1278.64,-299.156 1287.13,-305.494 1289.23,-298.816"/>
</g>
<!-- file://Anonymous/input.fofn&#45;&gt;task://Anonymous/P_Fetch/overviewRpt -->
<g id="edge38" class="edge"><title>file://Anonymous/input.fofn&#45;&gt;task://Anonymous/P_Fetch/overviewRpt</title>
<path fill="none" stroke="black" d="M1384.44,-520.333C1416.91,-508.725 1466.09,-491.146 1507.5,-476.344"/>
<polygon fill="black" stroke="black" points="1508.79,-479.602 1517.03,-472.94 1506.43,-473.01 1508.79,-479.602"/>
</g>
<!-- task://Anonymous/P_Barcode/labelZMWs -->
<a xlink:href="../log/P_Barcode/labelZMWs.log">
<g id="node14" class="node"><title>task://Anonymous/P_Barcode/labelZMWs</title>
<polygon fill="#fed98e" stroke="#000000" points="1171.12,-434.878 1171.12,-461.122 1104.86,-479.679 1011.14,-479.679 944.881,-461.122 944.881,-434.878 1011.14,-416.321 1104.86,-416.321 1171.12,-434.878"/>
<text text-anchor="middle" x="1058" y="-452.2" font-family="Times New Roman" font-size="14.00">P_Barcode/labelZMWs</text>
<text text-anchor="middle" x="1058" y="-435.4" font-family="Times New Roman" font-size="14.00">0:02:18</text>
</g>
</a>
<!-- file://Anonymous/input.fofn&#45;&gt;task://Anonymous/P_Barcode/labelZMWs -->
<g id="edge24" class="edge"><title>file://Anonymous/input.fofn&#45;&gt;task://Anonymous/P_Barcode/labelZMWs</title>
<path fill="none" stroke="black" d="M1313.61,-522.784C1271.94,-510.756 1201.26,-490.354 1144.77,-474.048"/>
<polygon fill="black" stroke="black" points="1145.7,-470.672 1135.12,-471.262 1143.76,-477.398 1145.7,-470.672"/>
</g>
<!-- task://Anonymous/P_AmpliconAnalysis/doBarcodeAmpliconAnalysis -->
<a xlink:href="../log/P_AmpliconAnalysis/doBarcodeAmpliconAnalysis.log">
<g id="node16" class="node"><title>task://Anonymous/P_AmpliconAnalysis/doBarcodeAmpliconAnalysis</title>
<polygon fill="#aaaaaa" stroke="#000000" points="1077.48,-262.878 1077.48,-289.122 940.711,-307.679 747.289,-307.679 610.519,-289.122 610.519,-262.878 747.289,-244.321 940.711,-244.321 1077.48,-262.878"/>
<text text-anchor="middle" x="844" y="-280.2" font-family="Times New Roman" font-size="14.00">P_AmpliconAnalysis/doBarcodeAmpliconAnalysis</text>
<text text-anchor="middle" x="844" y="-263.4" font-family="Times New Roman" font-size="14.00">3:24:32</text>
</g>
</a>
<!-- file://Anonymous/input.fofn&#45;&gt;task://Anonymous/P_AmpliconAnalysis/doBarcodeAmpliconAnalysis -->
<g id="edge46" class="edge"><title>file://Anonymous/input.fofn&#45;&gt;task://Anonymous/P_AmpliconAnalysis/doBarcodeAmpliconAnalysis</title>
<path fill="none" stroke="black" d="M1313.78,-532.776C1225.14,-531.551 995.662,-524.093 936,-480 883.382,-441.113 860.136,-365.031 850.417,-317.856"/>
<polygon fill="black" stroke="black" points="853.838,-317.111 848.49,-307.965 846.967,-318.45 853.838,-317.111"/>
</g>
<!-- task://Anonymous/P_Barcode/barcodeJsonReport -->
<a xlink:href="../log/P_Barcode/barcodeJsonReport.log">
<g id="node18" class="node"><title>task://Anonymous/P_Barcode/barcodeJsonReport</title>
<polygon fill="#fed98e" stroke="#000000" points="1619.03,-262.878 1619.03,-289.122 1534.66,-307.679 1415.34,-307.679 1330.97,-289.122 1330.97,-262.878 1415.34,-244.321 1534.66,-244.321 1619.03,-262.878"/>
<text text-anchor="middle" x="1475" y="-280.2" font-family="Times New Roman" font-size="14.00">P_Barcode/barcodeJsonReport</text>
<text text-anchor="middle" x="1475" y="-263.4" font-family="Times New Roman" font-size="14.00">0:00:32</text>
</g>
</a>
<!-- file://Anonymous/input.fofn&#45;&gt;task://Anonymous/P_Barcode/barcodeJsonReport -->
<g id="edge32" class="edge"><title>file://Anonymous/input.fofn&#45;&gt;task://Anonymous/P_Barcode/barcodeJsonReport</title>
<path fill="none" stroke="black" d="M1384.51,-516.008C1399.39,-507.208 1415.61,-495.11 1426,-480 1459.59,-431.152 1470.26,-361.884 1473.59,-318.212"/>
<polygon fill="black" stroke="black" points="1477.1,-318.168 1474.27,-307.958 1470.11,-317.704 1477.1,-318.168"/>
</g>
<!-- file://Anonymous/data/barcode.fofn -->
<a xlink:href="../data/barcode.fofn">
<g id="node17" class="node"><title>file://Anonymous/data/barcode.fofn</title>
<polygon fill="#eeeeee" stroke="black" points="1135.25,-380 1020.75,-380 1020.75,-376 1016.75,-376 1016.75,-372 1020.75,-372 1020.75,-352 1016.75,-352 1016.75,-348 1020.75,-348 1020.75,-344 1135.25,-344 1135.25,-380"/>
<polyline fill="none" stroke="black" points="1020.75,-376 1024.75,-376 1024.75,-372 1020.75,-372 "/>
<polyline fill="none" stroke="black" points="1020.75,-352 1024.75,-352 1024.75,-348 1020.75,-348 "/>
<text text-anchor="middle" x="1078" y="-357.8" font-family="Times New Roman" font-size="14.00">data/barcode.fofn</text>
</g>
</a>
<!-- task://Anonymous/P_Barcode/labelZMWs&#45;&gt;file://Anonymous/data/barcode.fofn -->
<g id="edge40" class="edge"><title>task://Anonymous/P_Barcode/labelZMWs&#45;&gt;file://Anonymous/data/barcode.fofn</title>
<path fill="none" stroke="black" d="M1065.33,-416.198C1067.37,-407.639 1069.57,-398.409 1071.55,-390.08"/>
<polygon fill="black" stroke="black" points="1075.01,-390.667 1073.92,-380.128 1068.2,-389.046 1075.01,-390.667"/>
</g>
<!-- task://Anonymous/P_AmpliconAnalysis/doBarcodeAmpliconAnalysis&#45;&gt;file://Anonymous/data/amplicon_analysis_zmws.csv -->
<g id="edge2" class="edge"><title>task://Anonymous/P_AmpliconAnalysis/doBarcodeAmpliconAnalysis&#45;&gt;file://Anonymous/data/amplicon_analysis_zmws.csv</title>
<path fill="none" stroke="black" d="M928.377,-244.318C958.336,-233.423 991.315,-221.431 1018.4,-211.584"/>
<polygon fill="black" stroke="black" points="1019.89,-214.765 1028.09,-208.059 1017.49,-208.187 1019.89,-214.765"/>
</g>
<!-- file://Anonymous/data/amplicon_analysis.fasta -->
<a xlink:href="../data/amplicon_analysis.fasta">
<g id="node19" class="node"><title>file://Anonymous/data/amplicon_analysis.fasta</title>
<polygon fill="#eeeeee" stroke="black" points="568.502,-208 391.498,-208 391.498,-204 387.498,-204 387.498,-200 391.498,-200 391.498,-180 387.498,-180 387.498,-176 391.498,-176 391.498,-172 568.502,-172 568.502,-208"/>
<polyline fill="none" stroke="black" points="391.498,-204 395.498,-204 395.498,-200 391.498,-200 "/>
<polyline fill="none" stroke="black" points="391.498,-180 395.498,-180 395.498,-176 391.498,-176 "/>
<text text-anchor="middle" x="480" y="-185.8" font-family="Times New Roman" font-size="14.00">data/amplicon_analysis.fasta</text>
</g>
</a>
<!-- task://Anonymous/P_AmpliconAnalysis/doBarcodeAmpliconAnalysis&#45;&gt;file://Anonymous/data/amplicon_analysis.fasta -->
<g id="edge20" class="edge"><title>task://Anonymous/P_AmpliconAnalysis/doBarcodeAmpliconAnalysis&#45;&gt;file://Anonymous/data/amplicon_analysis.fasta</title>
<path fill="none" stroke="black" d="M724.309,-247.379C671.787,-235.258 611.392,-221.321 563.791,-210.336"/>
<polygon fill="black" stroke="black" points="564.366,-206.877 553.835,-208.039 562.792,-213.698 564.366,-206.877"/>
</g>
<!-- file://Anonymous/data/amplicon_analysis.fastq -->
<a xlink:href="../data/amplicon_analysis.fastq">
<g id="node20" class="node"><title>file://Anonymous/data/amplicon_analysis.fastq</title>
<polygon fill="#eeeeee" stroke="black" points="765.091,-208 586.909,-208 586.909,-204 582.909,-204 582.909,-200 586.909,-200 586.909,-180 582.909,-180 582.909,-176 586.909,-176 586.909,-172 765.091,-172 765.091,-208"/>
<polyline fill="none" stroke="black" points="586.909,-204 590.909,-204 590.909,-200 586.909,-200 "/>
<polyline fill="none" stroke="black" points="586.909,-180 590.909,-180 590.909,-176 586.909,-176 "/>
<text text-anchor="middle" x="676" y="-185.8" font-family="Times New Roman" font-size="14.00">data/amplicon_analysis.fastq</text>
</g>
</a>
<!-- task://Anonymous/P_AmpliconAnalysis/doBarcodeAmpliconAnalysis&#45;&gt;file://Anonymous/data/amplicon_analysis.fastq -->
<g id="edge8" class="edge"><title>task://Anonymous/P_AmpliconAnalysis/doBarcodeAmpliconAnalysis&#45;&gt;file://Anonymous/data/amplicon_analysis.fastq</title>
<path fill="none" stroke="black" d="M782.397,-244.198C761.473,-233.736 738.548,-222.274 719.354,-212.677"/>
<polygon fill="black" stroke="black" points="720.766,-209.47 710.257,-208.128 717.636,-215.731 720.766,-209.47"/>
</g>
<!-- file://Anonymous/data/amplicon_analysis_summary.csv -->
<a xlink:href="../data/amplicon_analysis_summary.csv">
<g id="node22" class="node"><title>file://Anonymous/data/amplicon_analysis_summary.csv</title>
<polygon fill="#eeeeee" stroke="black" points="373.004,-208 144.996,-208 144.996,-204 140.996,-204 140.996,-200 144.996,-200 144.996,-180 140.996,-180 140.996,-176 144.996,-176 144.996,-172 373.004,-172 373.004,-208"/>
<polyline fill="none" stroke="black" points="144.996,-204 148.996,-204 148.996,-200 144.996,-200 "/>
<polyline fill="none" stroke="black" points="144.996,-180 148.996,-180 148.996,-176 144.996,-176 "/>
<text text-anchor="middle" x="259" y="-185.8" font-family="Times New Roman" font-size="14.00">data/amplicon_analysis_summary.csv</text>
</g>
</a>
<!-- task://Anonymous/P_AmpliconAnalysis/doBarcodeAmpliconAnalysis&#45;&gt;file://Anonymous/data/amplicon_analysis_summary.csv -->
<g id="edge44" class="edge"><title>task://Anonymous/P_AmpliconAnalysis/doBarcodeAmpliconAnalysis&#45;&gt;file://Anonymous/data/amplicon_analysis_summary.csv</title>
<path fill="none" stroke="black" d="M686.846,-252.434C591.692,-238.771 472.022,-221.588 383.457,-208.871"/>
<polygon fill="black" stroke="black" points="383.755,-205.378 373.359,-207.421 382.76,-212.307 383.755,-205.378"/>
</g>
<!-- file://Anonymous/data/amplicon_analysis.csv -->
<a xlink:href="../data/amplicon_analysis.csv">
<g id="node23" class="node"><title>file://Anonymous/data/amplicon_analysis.csv</title>
<polygon fill="#eeeeee" stroke="black" points="952.179,-208 783.821,-208 783.821,-204 779.821,-204 779.821,-200 783.821,-200 783.821,-180 779.821,-180 779.821,-176 783.821,-176 783.821,-172 952.179,-172 952.179,-208"/>
<polyline fill="none" stroke="black" points="783.821,-204 787.821,-204 787.821,-200 783.821,-200 "/>
<polyline fill="none" stroke="black" points="783.821,-180 787.821,-180 787.821,-176 783.821,-176 "/>
<text text-anchor="middle" x="868" y="-185.8" font-family="Times New Roman" font-size="14.00">data/amplicon_analysis.csv</text>
</g>
</a>
<!-- task://Anonymous/P_AmpliconAnalysis/doBarcodeAmpliconAnalysis&#45;&gt;file://Anonymous/data/amplicon_analysis.csv -->
<g id="edge42" class="edge"><title>task://Anonymous/P_AmpliconAnalysis/doBarcodeAmpliconAnalysis&#45;&gt;file://Anonymous/data/amplicon_analysis.csv</title>
<path fill="none" stroke="black" d="M852.8,-244.198C855.273,-235.543 857.942,-226.204 860.342,-217.802"/>
<polygon fill="black" stroke="black" points="863.724,-218.705 863.106,-208.128 856.994,-216.782 863.724,-218.705"/>
</g>
<!-- file://Anonymous/data/barcode.fofn&#45;&gt;task://Anonymous/P_Barcode/emitFastqs -->
<g id="edge50" class="edge"><title>file://Anonymous/data/barcode.fofn&#45;&gt;task://Anonymous/P_Barcode/emitFastqs</title>
<path fill="none" stroke="black" d="M1103.8,-343.799C1116.98,-335.01 1133.55,-323.965 1149.4,-313.401"/>
<polygon fill="black" stroke="black" points="1151.72,-316.059 1158.1,-307.599 1147.84,-310.234 1151.72,-316.059"/>
</g>
<!-- file://Anonymous/data/barcode.fofn&#45;&gt;task://Anonymous/P_AmpliconAnalysis/doBarcodeAmpliconAnalysis -->
<g id="edge48" class="edge"><title>file://Anonymous/data/barcode.fofn&#45;&gt;task://Anonymous/P_AmpliconAnalysis/doBarcodeAmpliconAnalysis</title>
<path fill="none" stroke="black" d="M1030.36,-343.9C1004.21,-334.51 970.809,-322.521 939.531,-311.293"/>
<polygon fill="black" stroke="black" points="940.497,-307.921 929.903,-307.837 938.132,-314.51 940.497,-307.921"/>
</g>
<!-- file://Anonymous/data/barcode.fofn&#45;&gt;task://Anonymous/P_Barcode/barcodeJsonReport -->
<g id="edge36" class="edge"><title>file://Anonymous/data/barcode.fofn&#45;&gt;task://Anonymous/P_Barcode/barcodeJsonReport</title>
<path fill="none" stroke="black" d="M1135.3,-348.875C1194.69,-336.309 1289.05,-316.345 1363.26,-300.643"/>
<polygon fill="black" stroke="black" points="1364.07,-304.049 1373.13,-298.555 1362.62,-297.201 1364.07,-304.049"/>
</g>
<!-- task://Anonymous/P_Barcode/barcodeJsonReport&#45;&gt;file://Anonymous/results/barcode_report.json -->
<g id="edge34" class="edge"><title>task://Anonymous/P_Barcode/barcodeJsonReport&#45;&gt;file://Anonymous/results/barcode_report.json</title>
<path fill="none" stroke="black" d="M1475,-244.198C1475,-235.734 1475,-226.614 1475,-218.358"/>
<polygon fill="black" stroke="black" points="1478.5,-218.128 1475,-208.128 1471.5,-218.128 1478.5,-218.128"/>
</g>
<!-- task://Anonymous/P_Fetch/toFofn&#45;&gt;file://Anonymous/input.fofn -->
<g id="edge12" class="edge"><title>task://Anonymous/P_Fetch/toFofn&#45;&gt;file://Anonymous/input.fofn</title>
<path fill="none" stroke="black" d="M1349,-588.198C1349,-579.734 1349,-570.614 1349,-562.358"/>
<polygon fill="black" stroke="black" points="1352.5,-562.128 1349,-552.128 1345.5,-562.128 1352.5,-562.128"/>
</g>
<!-- file://Anonymous/data/amplicon_analysis_summary.csv&#45;&gt;task://Anonymous/P_AmpliconAnalysis/ampliconAnalysisInputReport -->
<g id="edge26" class="edge"><title>file://Anonymous/data/amplicon_analysis_summary.csv&#45;&gt;task://Anonymous/P_AmpliconAnalysis/ampliconAnalysisInputReport</title>
<path fill="none" stroke="black" d="M373.242,-173.155C376.191,-172.764 379.114,-172.378 382,-172 501.315,-156.367 635.565,-139.735 740.482,-126.953"/>
<polygon fill="black" stroke="black" points="741.038,-130.411 750.542,-125.728 740.192,-123.463 741.038,-130.411"/>
</g>
<!-- file://Anonymous/data/amplicon_analysis_summary.csv&#45;&gt;task://Anonymous/P_AmpliconAnalysis/ampliconAnalysisConsensusReport -->
<g id="edge52" class="edge"><title>file://Anonymous/data/amplicon_analysis_summary.csv&#45;&gt;task://Anonymous/P_AmpliconAnalysis/ampliconAnalysisConsensusReport</title>
<path fill="none" stroke="black" d="M259,-171.595C259,-164.123 259,-155.048 259,-146.032"/>
<polygon fill="black" stroke="black" points="262.5,-145.967 259,-135.967 255.5,-145.967 262.5,-145.967"/>
</g>
</g>
</svg>
