<?xml version="1.0" encoding="UTF-8" standalone="no"?>
<!DOCTYPE svg PUBLIC "-//W3C//DTD SVG 1.1//EN"
"http://www.w3.org/Graphics/SVG/1.1/DTD/svg11.dtd">
<!-- Generated by graphviz version 2.28.0 (20140729.0816)
-->
<!-- Title: workflow://Anonymous/Workflow#summary Pages: 1 -->
<svg width="1400px" height="770px"
viewBox="0.00 0.00 1629.00 732.00" xmlns="http://www.w3.org/2000/svg" xmlns:xlink="http://www.w3.org/1999/xlink">
<g id="graph1" class="graph" transform="scale(1 1) rotate(0) translate(4 728)">
<title>workflow://Anonymous/Workflow#summary</title>
<polygon fill="white" stroke="white" points="-4,5 -4,-728 1626,-728 1626,5 -4,5"/>
<!-- file://Anonymous/data/amplicon_analysis.csv -->
<a xlink:href="../data/amplicon_analysis.csv">
<g id="node1" class="node"><title>file://Anonymous/data/amplicon_analysis.csv</title>
<polygon fill="#eeeeee" stroke="black" points="1165.18,-208 996.821,-208 996.821,-204 992.821,-204 992.821,-200 996.821,-200 996.821,-180 992.821,-180 992.821,-176 996.821,-176 996.821,-172 1165.18,-172 1165.18,-208"/>
<polyline fill="none" stroke="black" points="996.821,-204 1000.82,-204 1000.82,-200 996.821,-200 "/>
<polyline fill="none" stroke="black" points="996.821,-180 1000.82,-180 1000.82,-176 996.821,-176 "/>
<text text-anchor="middle" x="1081" y="-185.8" font-family="Times New Roman" font-size="14.00">data/amplicon_analysis.csv</text>
</g>
</a>
<!-- file://Anonymous/data/amplicon_analysis_zmws.csv -->
<a xlink:href="../data/amplicon_analysis_zmws.csv">
<g id="node2" class="node"><title>file://Anonymous/data/amplicon_analysis_zmws.csv</title>
<polygon fill="#eeeeee" stroke="black" points="340.42,-208 131.58,-208 131.58,-204 127.58,-204 127.58,-200 131.58,-200 131.58,-180 127.58,-180 127.58,-176 131.58,-176 131.58,-172 340.42,-172 340.42,-208"/>
<polyline fill="none" stroke="black" points="131.58,-204 135.58,-204 135.58,-200 131.58,-200 "/>
<polyline fill="none" stroke="black" points="131.58,-180 135.58,-180 135.58,-176 131.58,-176 "/>
<text text-anchor="middle" x="236" y="-185.8" font-family="Times New Roman" font-size="14.00">data/amplicon_analysis_zmws.csv</text>
</g>
</a>
<!-- task://Anonymous/P_AmpliconAnalysis/ampliconAnalysisInputReport -->
<g id="node14" class="node"><title>task://Anonymous/P_AmpliconAnalysis/ampliconAnalysisInputReport</title>
<polygon fill="#aaaaaa" stroke="#000000" points="472.063,-90.878 472.063,-117.122 333.781,-135.679 138.219,-135.679 -0.0633076,-117.122 -0.0633076,-90.878 138.219,-72.3207 333.781,-72.3207 472.063,-90.878"/>
<text text-anchor="middle" x="236" y="-108.2" font-family="Times New Roman" font-size="14.00">P_AmpliconAnalysis/ampliconAnalysisInputReport</text>
<text text-anchor="middle" x="236" y="-91.4" font-family="Times New Roman" font-size="14.00">0:00:03</text>
</g>
<!-- file://Anonymous/data/amplicon_analysis_zmws.csv&#45;&gt;task://Anonymous/P_AmpliconAnalysis/ampliconAnalysisInputReport -->
<g id="edge16" class="edge"><title>file://Anonymous/data/amplicon_analysis_zmws.csv&#45;&gt;task://Anonymous/P_AmpliconAnalysis/ampliconAnalysisInputReport</title>
<path fill="none" stroke="black" d="M236,-171.595C236,-164.123 236,-155.048 236,-146.032"/>
<polygon fill="black" stroke="black" points="239.5,-145.967 236,-135.967 232.5,-145.967 239.5,-145.967"/>
</g>
<!-- file://Anonymous/data/amplicon_analysis_summary.csv -->
<a xlink:href="../data/amplicon_analysis_summary.csv">
<g id="node3" class="node"><title>file://Anonymous/data/amplicon_analysis_summary.csv</title>
<polygon fill="#eeeeee" stroke="black" points="587.004,-208 358.996,-208 358.996,-204 354.996,-204 354.996,-200 358.996,-200 358.996,-180 354.996,-180 354.996,-176 358.996,-176 358.996,-172 587.004,-172 587.004,-208"/>
<polyline fill="none" stroke="black" points="358.996,-204 362.996,-204 362.996,-200 358.996,-200 "/>
<polyline fill="none" stroke="black" points="358.996,-180 362.996,-180 362.996,-176 358.996,-176 "/>
<text text-anchor="middle" x="473" y="-185.8" font-family="Times New Roman" font-size="14.00">data/amplicon_analysis_summary.csv</text>
</g>
</a>
<!-- task://Anonymous/P_AmpliconAnalysis/ampliconAnalysisConsensusReport -->
<g id="node6" class="node"><title>task://Anonymous/P_AmpliconAnalysis/ampliconAnalysisConsensusReport</title>
<polygon fill="#aaaaaa" stroke="#000000" points="1007.89,-90.878 1007.89,-117.122 856.235,-135.679 641.765,-135.679 490.112,-117.122 490.112,-90.878 641.765,-72.3207 856.235,-72.3207 1007.89,-90.878"/>
<text text-anchor="middle" x="749" y="-108.2" font-family="Times New Roman" font-size="14.00">P_AmpliconAnalysis/ampliconAnalysisConsensusReport</text>
<text text-anchor="middle" x="749" y="-91.4" font-family="Times New Roman" font-size="14.00">0:00:03</text>
</g>
<!-- file://Anonymous/data/amplicon_analysis_summary.csv&#45;&gt;task://Anonymous/P_AmpliconAnalysis/ampliconAnalysisConsensusReport -->
<g id="edge34" class="edge"><title>file://Anonymous/data/amplicon_analysis_summary.csv&#45;&gt;task://Anonymous/P_AmpliconAnalysis/ampliconAnalysisConsensusReport</title>
<path fill="none" stroke="black" d="M529.185,-171.9C560.51,-162.367 600.636,-150.154 638.011,-138.779"/>
<polygon fill="black" stroke="black" points="639.409,-142.012 647.957,-135.752 637.371,-135.316 639.409,-142.012"/>
</g>
<!-- file://Anonymous/data/amplicon_analysis_summary.csv&#45;&gt;task://Anonymous/P_AmpliconAnalysis/ampliconAnalysisInputReport -->
<g id="edge52" class="edge"><title>file://Anonymous/data/amplicon_analysis_summary.csv&#45;&gt;task://Anonymous/P_AmpliconAnalysis/ampliconAnalysisInputReport</title>
<path fill="none" stroke="black" d="M424.754,-171.9C398.261,-162.51 364.435,-150.521 332.756,-139.293"/>
<polygon fill="black" stroke="black" points="333.599,-135.879 323.004,-135.837 331.26,-142.477 333.599,-135.879"/>
</g>
<!-- file://Anonymous/data/barcode.fofn -->
<a xlink:href="../data/barcode.fofn">
<g id="node4" class="node"><title>file://Anonymous/data/barcode.fofn</title>
<polygon fill="#eeeeee" stroke="black" points="1053.25,-380 938.748,-380 938.748,-376 934.748,-376 934.748,-372 938.748,-372 938.748,-352 934.748,-352 934.748,-348 938.748,-348 938.748,-344 1053.25,-344 1053.25,-380"/>
<polyline fill="none" stroke="black" points="938.748,-376 942.748,-376 942.748,-372 938.748,-372 "/>
<polyline fill="none" stroke="black" points="938.748,-352 942.748,-352 942.748,-348 938.748,-348 "/>
<text text-anchor="middle" x="996" y="-357.8" font-family="Times New Roman" font-size="14.00">data/barcode.fofn</text>
</g>
</a>
<!-- task://Anonymous/P_Barcode/emitFastqs -->
<g id="node8" class="node"><title>task://Anonymous/P_Barcode/emitFastqs</title>
<polygon fill="#fed98e" stroke="#000000" points="1237.5,-262.878 1237.5,-289.122 1173.94,-307.679 1084.06,-307.679 1020.5,-289.122 1020.5,-262.878 1084.06,-244.321 1173.94,-244.321 1237.5,-262.878"/>
<text text-anchor="middle" x="1129" y="-280.2" font-family="Times New Roman" font-size="14.00">P_Barcode/emitFastqs</text>
<text text-anchor="middle" x="1129" y="-263.4" font-family="Times New Roman" font-size="14.00">0:03:16</text>
</g>
<!-- file://Anonymous/data/barcode.fofn&#45;&gt;task://Anonymous/P_Barcode/emitFastqs -->
<g id="edge4" class="edge"><title>file://Anonymous/data/barcode.fofn&#45;&gt;task://Anonymous/P_Barcode/emitFastqs</title>
<path fill="none" stroke="black" d="M1023.24,-343.799C1037.47,-334.806 1055.45,-323.451 1072.53,-312.666"/>
<polygon fill="black" stroke="black" points="1074.76,-315.393 1081.35,-307.094 1071.03,-309.475 1074.76,-315.393"/>
</g>
<!-- task://Anonymous/P_AmpliconAnalysis/doBarcodeAmpliconAnalysis -->
<g id="node13" class="node"><title>task://Anonymous/P_AmpliconAnalysis/doBarcodeAmpliconAnalysis</title>
<polygon fill="#aaaaaa" stroke="#000000" points="1002.48,-262.878 1002.48,-289.122 865.711,-307.679 672.289,-307.679 535.519,-289.122 535.519,-262.878 672.289,-244.321 865.711,-244.321 1002.48,-262.878"/>
<text text-anchor="middle" x="769" y="-280.2" font-family="Times New Roman" font-size="14.00">P_AmpliconAnalysis/doBarcodeAmpliconAnalysis</text>
<text text-anchor="middle" x="769" y="-263.4" font-family="Times New Roman" font-size="14.00">3:24:32</text>
</g>
<!-- file://Anonymous/data/barcode.fofn&#45;&gt;task://Anonymous/P_AmpliconAnalysis/doBarcodeAmpliconAnalysis -->
<g id="edge30" class="edge"><title>file://Anonymous/data/barcode.fofn&#45;&gt;task://Anonymous/P_AmpliconAnalysis/doBarcodeAmpliconAnalysis</title>
<path fill="none" stroke="black" d="M949.79,-343.9C924.524,-334.551 892.295,-322.625 862.066,-311.438"/>
<polygon fill="black" stroke="black" points="862.926,-308.025 852.333,-307.837 860.497,-314.59 862.926,-308.025"/>
</g>
<!-- task://Anonymous/P_Barcode/barcodeJsonReport -->
<g id="node21" class="node"><title>task://Anonymous/P_Barcode/barcodeJsonReport</title>
<polygon fill="#fed98e" stroke="#000000" points="1620.03,-262.878 1620.03,-289.122 1535.66,-307.679 1416.34,-307.679 1331.97,-289.122 1331.97,-262.878 1416.34,-244.321 1535.66,-244.321 1620.03,-262.878"/>
<text text-anchor="middle" x="1476" y="-280.2" font-family="Times New Roman" font-size="14.00">P_Barcode/barcodeJsonReport</text>
<text text-anchor="middle" x="1476" y="-263.4" font-family="Times New Roman" font-size="14.00">0:00:32</text>
</g>
<!-- file://Anonymous/data/barcode.fofn&#45;&gt;task://Anonymous/P_Barcode/barcodeJsonReport -->
<g id="edge12" class="edge"><title>file://Anonymous/data/barcode.fofn&#45;&gt;task://Anonymous/P_Barcode/barcodeJsonReport</title>
<path fill="none" stroke="black" d="M1053.42,-350.951C1127.45,-337.997 1258.1,-315.132 1354.59,-298.246"/>
<polygon fill="black" stroke="black" points="1355.46,-301.648 1364.7,-296.477 1354.25,-294.753 1355.46,-301.648"/>
</g>
<!-- file://Anonymous/results/overview.json -->
<a xlink:href="../results/overview.json">
<g id="node5" class="node"><title>file://Anonymous/results/overview.json</title>
<polygon fill="#eeeeee" stroke="black" points="1522.52,-380 1387.48,-380 1387.48,-376 1383.48,-376 1383.48,-372 1387.48,-372 1387.48,-352 1383.48,-352 1383.48,-348 1387.48,-348 1387.48,-344 1522.52,-344 1522.52,-380"/>
<polyline fill="none" stroke="black" points="1387.48,-376 1391.48,-376 1391.48,-372 1387.48,-372 "/>
<polyline fill="none" stroke="black" points="1387.48,-352 1391.48,-352 1391.48,-348 1387.48,-348 "/>
<text text-anchor="middle" x="1455" y="-357.8" font-family="Times New Roman" font-size="14.00">results/overview.json</text>
</g>
</a>
<!-- file://Anonymous/results/amplicon_analysis_consensus_report.json -->
<a xlink:href="../results/amplicon_analysis_consensus_report.json">
<g id="node10" class="node"><title>file://Anonymous/results/amplicon_analysis_consensus_report.json</title>
<polygon fill="#eeeeee" stroke="black" points="894.247,-36 603.753,-36 603.753,-32 599.753,-32 599.753,-28 603.753,-28 603.753,-8 599.753,-8 599.753,-4 603.753,-4 603.753,-0 894.247,-0 894.247,-36"/>
<polyline fill="none" stroke="black" points="603.753,-32 607.753,-32 607.753,-28 603.753,-28 "/>
<polyline fill="none" stroke="black" points="603.753,-8 607.753,-8 607.753,-4 603.753,-4 "/>
<text text-anchor="middle" x="749" y="-13.8" font-family="Times New Roman" font-size="14.00">results/amplicon_analysis_consensus_report.json</text>
</g>
</a>
<!-- task://Anonymous/P_AmpliconAnalysis/ampliconAnalysisConsensusReport&#45;&gt;file://Anonymous/results/amplicon_analysis_consensus_report.json -->
<g id="edge32" class="edge"><title>task://Anonymous/P_AmpliconAnalysis/ampliconAnalysisConsensusReport&#45;&gt;file://Anonymous/results/amplicon_analysis_consensus_report.json</title>
<path fill="none" stroke="black" d="M749,-72.1985C749,-63.7337 749,-54.6142 749,-46.3577"/>
<polygon fill="black" stroke="black" points="752.5,-46.1284 749,-36.1284 745.5,-46.1284 752.5,-46.1284"/>
</g>
<!-- task://Anonymous/P_Fetch/adapterRpt -->
<g id="node7" class="node"><title>task://Anonymous/P_Fetch/adapterRpt</title>
<polygon fill="#e78ac3" stroke="#000000" points="1331.03,-434.878 1331.03,-461.122 1274.19,-479.679 1193.81,-479.679 1136.97,-461.122 1136.97,-434.878 1193.81,-416.321 1274.19,-416.321 1331.03,-434.878"/>
<text text-anchor="middle" x="1234" y="-452.2" font-family="Times New Roman" font-size="14.00">P_Fetch/adapterRpt</text>
<text text-anchor="middle" x="1234" y="-435.4" font-family="Times New Roman" font-size="14.00">0:00:58</text>
</g>
<!-- file://Anonymous/results/filter_reports_adapters.json -->
<a xlink:href="../results/filter_reports_adapters.json">
<g id="node17" class="node"><title>file://Anonymous/results/filter_reports_adapters.json</title>
<polygon fill="#eeeeee" stroke="black" points="1346.49,-380 1137.51,-380 1137.51,-376 1133.51,-376 1133.51,-372 1137.51,-372 1137.51,-352 1133.51,-352 1133.51,-348 1137.51,-348 1137.51,-344 1346.49,-344 1346.49,-380"/>
<polyline fill="none" stroke="black" points="1137.51,-376 1141.51,-376 1141.51,-372 1137.51,-372 "/>
<polyline fill="none" stroke="black" points="1137.51,-352 1141.51,-352 1141.51,-348 1137.51,-348 "/>
<text text-anchor="middle" x="1242" y="-357.8" font-family="Times New Roman" font-size="14.00">results/filter_reports_adapters.json</text>
</g>
</a>
<!-- task://Anonymous/P_Fetch/adapterRpt&#45;&gt;file://Anonymous/results/filter_reports_adapters.json -->
<g id="edge28" class="edge"><title>task://Anonymous/P_Fetch/adapterRpt&#45;&gt;file://Anonymous/results/filter_reports_adapters.json</title>
<path fill="none" stroke="black" d="M1236.93,-416.198C1237.74,-407.734 1238.61,-398.614 1239.39,-390.358"/>
<polygon fill="black" stroke="black" points="1242.9,-390.415 1240.37,-380.128 1235.94,-389.752 1242.9,-390.415"/>
</g>
<!-- file://Anonymous/data/barcoded&#45;fastqs.tgz -->
<g id="node22" class="node"><title>file://Anonymous/data/barcoded&#45;fastqs.tgz</title>
<polygon fill="#eeeeee" stroke="black" points="1336.33,-208 1183.67,-208 1183.67,-204 1179.67,-204 1179.67,-200 1183.67,-200 1183.67,-180 1179.67,-180 1179.67,-176 1183.67,-176 1183.67,-172 1336.33,-172 1336.33,-208"/>
<polyline fill="none" stroke="black" points="1183.67,-204 1187.67,-204 1187.67,-200 1183.67,-200 "/>
<polyline fill="none" stroke="black" points="1183.67,-180 1187.67,-180 1187.67,-176 1183.67,-176 "/>
<text text-anchor="middle" x="1260" y="-185.8" font-family="Times New Roman" font-size="14.00">data/barcoded&#45;fastqs.tgz</text>
</g>
<!-- task://Anonymous/P_Barcode/emitFastqs&#45;&gt;file://Anonymous/data/barcoded&#45;fastqs.tgz -->
<g id="edge22" class="edge"><title>task://Anonymous/P_Barcode/emitFastqs&#45;&gt;file://Anonymous/data/barcoded&#45;fastqs.tgz</title>
<path fill="none" stroke="black" d="M1176.29,-244.674C1192.35,-234.382 1209.98,-223.073 1224.91,-213.502"/>
<polygon fill="black" stroke="black" points="1226.82,-216.431 1233.35,-208.087 1223.04,-210.539 1226.82,-216.431"/>
</g>
<!-- file://Anonymous//home/UNIXHOME/bbowman/2014/09/HLA_Hackathon/Normal_11/input.xml -->
<a xlink:href="..//home/UNIXHOME/bbowman/2014/09/HLA_Hackathon/Normal_11/input.xml">
<g id="node9" class="node"><title>file://Anonymous//home/UNIXHOME/bbowman/2014/09/HLA_Hackathon/Normal_11/input.xml</title>
<polygon fill="#eeeeee" stroke="black" points="1403.4,-724 938.601,-724 938.601,-720 934.601,-720 934.601,-716 938.601,-716 938.601,-696 934.601,-696 934.601,-692 938.601,-692 938.601,-688 1403.4,-688 1403.4,-724"/>
<polyline fill="none" stroke="black" points="938.601,-720 942.601,-720 942.601,-716 938.601,-716 "/>
<polyline fill="none" stroke="black" points="938.601,-696 942.601,-696 942.601,-692 938.601,-692 "/>
<text text-anchor="middle" x="1171" y="-701.8" font-family="Times New Roman" font-size="14.00">/home/UNIXHOME/bbowman/2014/09/HLA_Hackathon/Normal_11/input.xml</text>
</g>
</a>
<!-- task://Anonymous/P_Fetch/toFofn -->
<g id="node18" class="node"><title>task://Anonymous/P_Fetch/toFofn</title>
<polygon fill="#e78ac3" stroke="#000000" points="1249.38,-606.878 1249.38,-633.122 1203.46,-651.679 1138.54,-651.679 1092.62,-633.122 1092.62,-606.878 1138.54,-588.321 1203.46,-588.321 1249.38,-606.878"/>
<text text-anchor="middle" x="1171" y="-624.2" font-family="Times New Roman" font-size="14.00">P_Fetch/toFofn</text>
<text text-anchor="middle" x="1171" y="-607.4" font-family="Times New Roman" font-size="14.00">0:00:00</text>
</g>
<!-- file://Anonymous//home/UNIXHOME/bbowman/2014/09/HLA_Hackathon/Normal_11/input.xml&#45;&gt;task://Anonymous/P_Fetch/toFofn -->
<g id="edge40" class="edge"><title>file://Anonymous//home/UNIXHOME/bbowman/2014/09/HLA_Hackathon/Normal_11/input.xml&#45;&gt;task://Anonymous/P_Fetch/toFofn</title>
<path fill="none" stroke="black" d="M1171,-687.595C1171,-680.123 1171,-671.048 1171,-662.032"/>
<polygon fill="black" stroke="black" points="1174.5,-661.967 1171,-651.967 1167.5,-661.967 1174.5,-661.967"/>
</g>
<!-- file://Anonymous/input.fofn -->
<a xlink:href="../input.fofn">
<g id="node11" class="node"><title>file://Anonymous/input.fofn</title>
<polygon fill="#eeeeee" stroke="black" points="1206.21,-552 1135.79,-552 1135.79,-548 1131.79,-548 1131.79,-544 1135.79,-544 1135.79,-524 1131.79,-524 1131.79,-520 1135.79,-520 1135.79,-516 1206.21,-516 1206.21,-552"/>
<polyline fill="none" stroke="black" points="1135.79,-548 1139.79,-548 1139.79,-544 1135.79,-544 "/>
<polyline fill="none" stroke="black" points="1135.79,-524 1139.79,-524 1139.79,-520 1135.79,-520 "/>
<text text-anchor="middle" x="1171" y="-529.8" font-family="Times New Roman" font-size="14.00">input.fofn</text>
</g>
</a>
<!-- file://Anonymous/input.fofn&#45;&gt;task://Anonymous/P_Fetch/adapterRpt -->
<g id="edge20" class="edge"><title>file://Anonymous/input.fofn&#45;&gt;task://Anonymous/P_Fetch/adapterRpt</title>
<path fill="none" stroke="black" d="M1184.05,-515.595C1190.08,-507.561 1197.5,-497.673 1204.75,-487.998"/>
<polygon fill="black" stroke="black" points="1207.57,-490.067 1210.77,-479.967 1201.97,-485.867 1207.57,-490.067"/>
</g>
<!-- file://Anonymous/input.fofn&#45;&gt;task://Anonymous/P_Barcode/emitFastqs -->
<g id="edge24" class="edge"><title>file://Anonymous/input.fofn&#45;&gt;task://Anonymous/P_Barcode/emitFastqs</title>
<path fill="none" stroke="black" d="M1151.96,-515.837C1142.82,-506.3 1132.83,-493.624 1128,-480 1109.05,-426.566 1114.31,-360.127 1120.84,-318.128"/>
<polygon fill="black" stroke="black" points="1124.33,-318.436 1122.51,-307.999 1117.43,-317.296 1124.33,-318.436"/>
</g>
<!-- file://Anonymous/input.fofn&#45;&gt;task://Anonymous/P_AmpliconAnalysis/doBarcodeAmpliconAnalysis -->
<g id="edge10" class="edge"><title>file://Anonymous/input.fofn&#45;&gt;task://Anonymous/P_AmpliconAnalysis/doBarcodeAmpliconAnalysis</title>
<path fill="none" stroke="black" d="M1135.55,-531.599C1060.71,-527.96 889.887,-515.851 846,-480 796.879,-439.873 779.065,-364.789 772.624,-318.041"/>
<polygon fill="black" stroke="black" points="776.075,-317.431 771.349,-307.948 769.13,-318.308 776.075,-317.431"/>
</g>
<!-- task://Anonymous/P_Barcode/labelZMWs -->
<g id="node15" class="node"><title>task://Anonymous/P_Barcode/labelZMWs</title>
<polygon fill="#fed98e" stroke="#000000" points="1081.12,-434.878 1081.12,-461.122 1014.86,-479.679 921.144,-479.679 854.881,-461.122 854.881,-434.878 921.144,-416.321 1014.86,-416.321 1081.12,-434.878"/>
<text text-anchor="middle" x="968" y="-452.2" font-family="Times New Roman" font-size="14.00">P_Barcode/labelZMWs</text>
<text text-anchor="middle" x="968" y="-435.4" font-family="Times New Roman" font-size="14.00">0:02:18</text>
</g>
<!-- file://Anonymous/input.fofn&#45;&gt;task://Anonymous/P_Barcode/labelZMWs -->
<g id="edge18" class="edge"><title>file://Anonymous/input.fofn&#45;&gt;task://Anonymous/P_Barcode/labelZMWs</title>
<path fill="none" stroke="black" d="M1135.64,-518.368C1109.48,-507.544 1072.94,-492.425 1040.65,-479.064"/>
<polygon fill="black" stroke="black" points="1041.81,-475.754 1031.23,-475.164 1039.13,-482.222 1041.81,-475.754"/>
</g>
<!-- task://Anonymous/P_Fetch/overviewRpt -->
<g id="node16" class="node"><title>task://Anonymous/P_Fetch/overviewRpt</title>
<polygon fill="#e78ac3" stroke="#000000" points="1560.53,-434.878 1560.53,-461.122 1498.71,-479.679 1411.29,-479.679 1349.47,-461.122 1349.47,-434.878 1411.29,-416.321 1498.71,-416.321 1560.53,-434.878"/>
<text text-anchor="middle" x="1455" y="-452.2" font-family="Times New Roman" font-size="14.00">P_Fetch/overviewRpt</text>
<text text-anchor="middle" x="1455" y="-435.4" font-family="Times New Roman" font-size="14.00">0:00:02</text>
</g>
<!-- file://Anonymous/input.fofn&#45;&gt;task://Anonymous/P_Fetch/overviewRpt -->
<g id="edge36" class="edge"><title>file://Anonymous/input.fofn&#45;&gt;task://Anonymous/P_Fetch/overviewRpt</title>
<path fill="none" stroke="black" d="M1206.39,-522.531C1247.49,-510.375 1316.67,-489.914 1371.63,-473.658"/>
<polygon fill="black" stroke="black" points="1372.77,-476.97 1381.37,-470.778 1370.79,-470.258 1372.77,-476.97"/>
</g>
<!-- file://Anonymous/input.fofn&#45;&gt;task://Anonymous/P_Barcode/barcodeJsonReport -->
<g id="edge2" class="edge"><title>file://Anonymous/input.fofn&#45;&gt;task://Anonymous/P_Barcode/barcodeJsonReport</title>
<path fill="none" stroke="black" d="M1206.21,-530.922C1299.09,-525.085 1545.21,-507.172 1569,-480 1611.85,-431.064 1558.58,-359.068 1516.78,-315.264"/>
<polygon fill="black" stroke="black" points="1519.14,-312.677 1509.66,-307.954 1514.13,-317.56 1519.14,-312.677"/>
</g>
<!-- file://Anonymous/results/barcode_report.json -->
<a xlink:href="../results/barcode_report.json">
<g id="node12" class="node"><title>file://Anonymous/results/barcode_report.json</title>
<polygon fill="#eeeeee" stroke="black" points="1560,-208 1392,-208 1392,-204 1388,-204 1388,-200 1392,-200 1392,-180 1388,-180 1388,-176 1392,-176 1392,-172 1560,-172 1560,-208"/>
<polyline fill="none" stroke="black" points="1392,-204 1396,-204 1396,-200 1392,-200 "/>
<polyline fill="none" stroke="black" points="1392,-180 1396,-180 1396,-176 1392,-176 "/>
<text text-anchor="middle" x="1476" y="-185.8" font-family="Times New Roman" font-size="14.00">results/barcode_report.json</text>
</g>
</a>
<!-- task://Anonymous/P_AmpliconAnalysis/doBarcodeAmpliconAnalysis&#45;&gt;file://Anonymous/data/amplicon_analysis.csv -->
<g id="edge26" class="edge"><title>task://Anonymous/P_AmpliconAnalysis/doBarcodeAmpliconAnalysis&#45;&gt;file://Anonymous/data/amplicon_analysis.csv</title>
<path fill="none" stroke="black" d="M877.247,-245.857C920.406,-234.237 968.962,-221.164 1007.84,-210.696"/>
<polygon fill="black" stroke="black" points="1008.77,-214.072 1017.51,-208.093 1006.95,-207.313 1008.77,-214.072"/>
</g>
<!-- task://Anonymous/P_AmpliconAnalysis/doBarcodeAmpliconAnalysis&#45;&gt;file://Anonymous/data/amplicon_analysis_zmws.csv -->
<g id="edge8" class="edge"><title>task://Anonymous/P_AmpliconAnalysis/doBarcodeAmpliconAnalysis&#45;&gt;file://Anonymous/data/amplicon_analysis_zmws.csv</title>
<path fill="none" stroke="black" d="M619.466,-251.434C534.27,-238.007 429.178,-221.445 350.569,-209.056"/>
<polygon fill="black" stroke="black" points="351.054,-205.589 340.631,-207.49 349.965,-212.504 351.054,-205.589"/>
</g>
<!-- task://Anonymous/P_AmpliconAnalysis/doBarcodeAmpliconAnalysis&#45;&gt;file://Anonymous/data/amplicon_analysis_summary.csv -->
<g id="edge44" class="edge"><title>task://Anonymous/P_AmpliconAnalysis/doBarcodeAmpliconAnalysis&#45;&gt;file://Anonymous/data/amplicon_analysis_summary.csv</title>
<path fill="none" stroke="black" d="M664.225,-245.267C624.093,-233.878 579.312,-221.17 543.18,-210.916"/>
<polygon fill="black" stroke="black" points="543.805,-207.455 533.229,-208.092 541.893,-214.189 543.805,-207.455"/>
</g>
<!-- file://Anonymous/data/amplicon_analysis.fastq -->
<a xlink:href="../data/amplicon_analysis.fastq">
<g id="node19" class="node"><title>file://Anonymous/data/amplicon_analysis.fastq</title>
<polygon fill="#eeeeee" stroke="black" points="783.091,-208 604.909,-208 604.909,-204 600.909,-204 600.909,-200 604.909,-200 604.909,-180 600.909,-180 600.909,-176 604.909,-176 604.909,-172 783.091,-172 783.091,-208"/>
<polyline fill="none" stroke="black" points="604.909,-204 608.909,-204 608.909,-200 604.909,-200 "/>
<polyline fill="none" stroke="black" points="604.909,-180 608.909,-180 608.909,-176 604.909,-176 "/>
<text text-anchor="middle" x="694" y="-185.8" font-family="Times New Roman" font-size="14.00">data/amplicon_analysis.fastq</text>
</g>
</a>
<!-- task://Anonymous/P_AmpliconAnalysis/doBarcodeAmpliconAnalysis&#45;&gt;file://Anonymous/data/amplicon_analysis.fastq -->
<g id="edge50" class="edge"><title>task://Anonymous/P_AmpliconAnalysis/doBarcodeAmpliconAnalysis&#45;&gt;file://Anonymous/data/amplicon_analysis.fastq</title>
<path fill="none" stroke="black" d="M741.499,-244.198C733.092,-234.783 723.961,-224.557 715.973,-215.609"/>
<polygon fill="black" stroke="black" points="718.564,-213.257 709.293,-208.128 713.343,-217.919 718.564,-213.257"/>
</g>
<!-- file://Anonymous/data/amplicon_analysis.fasta -->
<a xlink:href="../data/amplicon_analysis.fasta">
<g id="node23" class="node"><title>file://Anonymous/data/amplicon_analysis.fasta</title>
<polygon fill="#eeeeee" stroke="black" points="978.502,-208 801.498,-208 801.498,-204 797.498,-204 797.498,-200 801.498,-200 801.498,-180 797.498,-180 797.498,-176 801.498,-176 801.498,-172 978.502,-172 978.502,-208"/>
<polyline fill="none" stroke="black" points="801.498,-204 805.498,-204 805.498,-200 801.498,-200 "/>
<polyline fill="none" stroke="black" points="801.498,-180 805.498,-180 805.498,-176 801.498,-176 "/>
<text text-anchor="middle" x="890" y="-185.8" font-family="Times New Roman" font-size="14.00">data/amplicon_analysis.fasta</text>
</g>
</a>
<!-- task://Anonymous/P_AmpliconAnalysis/doBarcodeAmpliconAnalysis&#45;&gt;file://Anonymous/data/amplicon_analysis.fasta -->
<g id="edge38" class="edge"><title>task://Anonymous/P_AmpliconAnalysis/doBarcodeAmpliconAnalysis&#45;&gt;file://Anonymous/data/amplicon_analysis.fasta</title>
<path fill="none" stroke="black" d="M813.369,-244.198C827.754,-234.212 843.452,-223.314 856.873,-213.997"/>
<polygon fill="black" stroke="black" points="859.108,-216.706 865.327,-208.128 855.116,-210.956 859.108,-216.706"/>
</g>
<!-- file://Anonymous/results/amplicon_analysis_input_report.json -->
<a xlink:href="../results/amplicon_analysis_input_report.json">
<g id="node20" class="node"><title>file://Anonymous/results/amplicon_analysis_input_report.json</title>
<polygon fill="#eeeeee" stroke="black" points="367.26,-36 104.74,-36 104.74,-32 100.74,-32 100.74,-28 104.74,-28 104.74,-8 100.74,-8 100.74,-4 104.74,-4 104.74,-0 367.26,-0 367.26,-36"/>
<polyline fill="none" stroke="black" points="104.74,-32 108.74,-32 108.74,-28 104.74,-28 "/>
<polyline fill="none" stroke="black" points="104.74,-8 108.74,-8 108.74,-4 104.74,-4 "/>
<text text-anchor="middle" x="236" y="-13.8" font-family="Times New Roman" font-size="14.00">results/amplicon_analysis_input_report.json</text>
</g>
</a>
<!-- task://Anonymous/P_AmpliconAnalysis/ampliconAnalysisInputReport&#45;&gt;file://Anonymous/results/amplicon_analysis_input_report.json -->
<g id="edge6" class="edge"><title>task://Anonymous/P_AmpliconAnalysis/ampliconAnalysisInputReport&#45;&gt;file://Anonymous/results/amplicon_analysis_input_report.json</title>
<path fill="none" stroke="black" d="M236,-72.1985C236,-63.7337 236,-54.6142 236,-46.3577"/>
<polygon fill="black" stroke="black" points="239.5,-46.1284 236,-36.1284 232.5,-46.1284 239.5,-46.1284"/>
</g>
<!-- task://Anonymous/P_Barcode/labelZMWs&#45;&gt;file://Anonymous/data/barcode.fofn -->
<g id="edge42" class="edge"><title>task://Anonymous/P_Barcode/labelZMWs&#45;&gt;file://Anonymous/data/barcode.fofn</title>
<path fill="none" stroke="black" d="M978.267,-416.198C981.152,-407.543 984.265,-398.204 987.066,-389.802"/>
<polygon fill="black" stroke="black" points="990.449,-390.722 990.291,-380.128 983.808,-388.508 990.449,-390.722"/>
</g>
<!-- task://Anonymous/P_Fetch/overviewRpt&#45;&gt;file://Anonymous/results/overview.json -->
<g id="edge46" class="edge"><title>task://Anonymous/P_Fetch/overviewRpt&#45;&gt;file://Anonymous/results/overview.json</title>
<path fill="none" stroke="black" d="M1455,-416.198C1455,-407.734 1455,-398.614 1455,-390.358"/>
<polygon fill="black" stroke="black" points="1458.5,-390.128 1455,-380.128 1451.5,-390.128 1458.5,-390.128"/>
</g>
<!-- task://Anonymous/P_Fetch/toFofn&#45;&gt;file://Anonymous/input.fofn -->
<g id="edge48" class="edge"><title>task://Anonymous/P_Fetch/toFofn&#45;&gt;file://Anonymous/input.fofn</title>
<path fill="none" stroke="black" d="M1171,-588.198C1171,-579.734 1171,-570.614 1171,-562.358"/>
<polygon fill="black" stroke="black" points="1174.5,-562.128 1171,-552.128 1167.5,-562.128 1174.5,-562.128"/>
</g>
<!-- task://Anonymous/P_Barcode/barcodeJsonReport&#45;&gt;file://Anonymous/results/barcode_report.json -->
<g id="edge14" class="edge"><title>task://Anonymous/P_Barcode/barcodeJsonReport&#45;&gt;file://Anonymous/results/barcode_report.json</title>
<path fill="none" stroke="black" d="M1476,-244.198C1476,-235.734 1476,-226.614 1476,-218.358"/>
<polygon fill="black" stroke="black" points="1479.5,-218.128 1476,-208.128 1472.5,-218.128 1479.5,-218.128"/>
</g>
</g>
</svg>
