<?xml version="1.0" encoding="UTF-8" standalone="no"?>
<!DOCTYPE svg PUBLIC "-//W3C//DTD SVG 1.1//EN"
"http://www.w3.org/Graphics/SVG/1.1/DTD/svg11.dtd">
<!-- Generated by graphviz version 2.28.0 (20140729.0816)
-->
<!-- Title: workflow://Anonymous/Workflow#summary Pages: 1 -->
<svg width="1400px" height="770px"
viewBox="0.00 0.00 1830.00 732.00" xmlns="http://www.w3.org/2000/svg" xmlns:xlink="http://www.w3.org/1999/xlink">
<g id="graph1" class="graph" transform="scale(1 1) rotate(0) translate(4 728)">
<title>workflow://Anonymous/Workflow#summary</title>
<polygon fill="white" stroke="white" points="-4,5 -4,-728 1827,-728 1827,5 -4,5"/>
<!-- task://Anonymous/P_AmpliconAnalysis/doSplitBarcodeAmpliconAnalysis -->
<g id="node1" class="node"><title>task://Anonymous/P_AmpliconAnalysis/doSplitBarcodeAmpliconAnalysis</title>
<polygon fill="#ff0000" stroke="#440000" points="1135.2,-262.878 1135.2,-289.122 958.761,-307.679 709.239,-307.679 532.8,-289.122 532.8,-262.878 709.239,-244.321 958.761,-244.321 1135.2,-262.878"/>
<text text-anchor="middle" x="834" y="-280.2" font-family="Times New Roman" font-size="14.00">P_AmpliconAnalysis/doSplitBarcodeAmpliconAnalysis [FAILED]</text>
<text text-anchor="middle" x="834" y="-263.4" font-family="Times New Roman" font-size="14.00">3:30:06</text>
</g>
<!-- file://Anonymous/data/amplicon_analysis.csv -->
<a xlink:href="../data/amplicon_analysis.csv">
<g id="node2" class="node"><title>file://Anonymous/data/amplicon_analysis.csv</title>
<polygon fill="#eeeeee" stroke="black" points="1214.18,-208 1045.82,-208 1045.82,-204 1041.82,-204 1041.82,-200 1045.82,-200 1045.82,-180 1041.82,-180 1041.82,-176 1045.82,-176 1045.82,-172 1214.18,-172 1214.18,-208"/>
<polyline fill="none" stroke="black" points="1045.82,-204 1049.82,-204 1049.82,-200 1045.82,-200 "/>
<polyline fill="none" stroke="black" points="1045.82,-180 1049.82,-180 1049.82,-176 1045.82,-176 "/>
<text text-anchor="middle" x="1130" y="-185.8" font-family="Times New Roman" font-size="14.00">data/amplicon_analysis.csv</text>
</g>
</a>
<!-- task://Anonymous/P_AmpliconAnalysis/doSplitBarcodeAmpliconAnalysis&#45;&gt;file://Anonymous/data/amplicon_analysis.csv -->
<g id="edge18" class="edge"><title>task://Anonymous/P_AmpliconAnalysis/doSplitBarcodeAmpliconAnalysis&#45;&gt;file://Anonymous/data/amplicon_analysis.csv</title>
<path fill="none" stroke="black" d="M942.119,-244.318C981.519,-233.137 1024.99,-220.799 1060.19,-210.811"/>
<polygon fill="black" stroke="black" points="1061.22,-214.156 1069.89,-208.059 1059.31,-207.422 1061.22,-214.156"/>
</g>
<!-- file://Anonymous/data/amplicon_analysis_summary.csv -->
<a xlink:href="../data/amplicon_analysis_summary.csv">
<g id="node4" class="node"><title>file://Anonymous/data/amplicon_analysis_summary.csv</title>
<polygon fill="#eeeeee" stroke="black" points="587.004,-208 358.996,-208 358.996,-204 354.996,-204 354.996,-200 358.996,-200 358.996,-180 354.996,-180 354.996,-176 358.996,-176 358.996,-172 587.004,-172 587.004,-208"/>
<polyline fill="none" stroke="black" points="358.996,-204 362.996,-204 362.996,-200 358.996,-200 "/>
<polyline fill="none" stroke="black" points="358.996,-180 362.996,-180 362.996,-176 358.996,-176 "/>
<text text-anchor="middle" x="473" y="-185.8" font-family="Times New Roman" font-size="14.00">data/amplicon_analysis_summary.csv</text>
</g>
</a>
<!-- task://Anonymous/P_AmpliconAnalysis/doSplitBarcodeAmpliconAnalysis&#45;&gt;file://Anonymous/data/amplicon_analysis_summary.csv -->
<g id="edge4" class="edge"><title>task://Anonymous/P_AmpliconAnalysis/doSplitBarcodeAmpliconAnalysis&#45;&gt;file://Anonymous/data/amplicon_analysis_summary.csv</title>
<path fill="none" stroke="black" d="M704.181,-244.793C654.756,-233.292 599.815,-220.508 555.897,-210.289"/>
<polygon fill="black" stroke="black" points="556.662,-206.874 546.129,-208.016 555.076,-213.692 556.662,-206.874"/>
</g>
<!-- file://Anonymous/data/amplicon_analysis_fasta.zip -->
<a xlink:href="../data/amplicon_analysis_fasta.zip">
<g id="node10" class="node"><title>file://Anonymous/data/amplicon_analysis_fasta.zip</title>
<polygon fill="none" stroke="black" stroke-dasharray="1,5" points="806.581,-208 605.419,-208 605.419,-204 601.419,-204 601.419,-200 605.419,-200 605.419,-180 601.419,-180 601.419,-176 605.419,-176 605.419,-172 806.581,-172 806.581,-208"/>
<polyline fill="none" stroke="black" stroke-dasharray="1,5" points="605.419,-204 609.419,-204 609.419,-200 605.419,-200 "/>
<polyline fill="none" stroke="black" stroke-dasharray="1,5" points="605.419,-180 609.419,-180 609.419,-176 605.419,-176 "/>
<text text-anchor="middle" x="706" y="-185.8" font-family="Times New Roman" font-size="14.00">data/amplicon_analysis_fasta.zip</text>
</g>
</a>
<!-- task://Anonymous/P_AmpliconAnalysis/doSplitBarcodeAmpliconAnalysis&#45;&gt;file://Anonymous/data/amplicon_analysis_fasta.zip -->
<g id="edge2" class="edge"><title>task://Anonymous/P_AmpliconAnalysis/doSplitBarcodeAmpliconAnalysis&#45;&gt;file://Anonymous/data/amplicon_analysis_fasta.zip</title>
<path fill="none" stroke="black" d="M787.064,-244.198C771.702,-234.117 754.924,-223.106 740.638,-213.731"/>
<polygon fill="black" stroke="black" points="742.381,-210.689 732.1,-208.128 738.541,-216.541 742.381,-210.689"/>
</g>
<!-- file://Anonymous/data/amplicon_analysis_fastq.zip -->
<a xlink:href="../data/amplicon_analysis_fastq.zip">
<g id="node17" class="node"><title>file://Anonymous/data/amplicon_analysis_fastq.zip</title>
<polygon fill="none" stroke="black" stroke-dasharray="1,5" points="1027.17,-208 824.83,-208 824.83,-204 820.83,-204 820.83,-200 824.83,-200 824.83,-180 820.83,-180 820.83,-176 824.83,-176 824.83,-172 1027.17,-172 1027.17,-208"/>
<polyline fill="none" stroke="black" stroke-dasharray="1,5" points="824.83,-204 828.83,-204 828.83,-200 824.83,-200 "/>
<polyline fill="none" stroke="black" stroke-dasharray="1,5" points="824.83,-180 828.83,-180 828.83,-176 824.83,-176 "/>
<text text-anchor="middle" x="926" y="-185.8" font-family="Times New Roman" font-size="14.00">data/amplicon_analysis_fastq.zip</text>
</g>
</a>
<!-- task://Anonymous/P_AmpliconAnalysis/doSplitBarcodeAmpliconAnalysis&#45;&gt;file://Anonymous/data/amplicon_analysis_fastq.zip -->
<g id="edge22" class="edge"><title>task://Anonymous/P_AmpliconAnalysis/doSplitBarcodeAmpliconAnalysis&#45;&gt;file://Anonymous/data/amplicon_analysis_fastq.zip</title>
<path fill="none" stroke="black" d="M867.735,-244.198C878.256,-234.592 889.7,-224.143 899.639,-215.069"/>
<polygon fill="black" stroke="black" points="902.215,-217.456 907.24,-208.128 897.495,-212.286 902.215,-217.456"/>
</g>
<!-- file://Anonymous/data/amplicon_analysis_zmws.csv -->
<a xlink:href="../data/amplicon_analysis_zmws.csv">
<g id="node21" class="node"><title>file://Anonymous/data/amplicon_analysis_zmws.csv</title>
<polygon fill="#eeeeee" stroke="black" points="340.42,-208 131.58,-208 131.58,-204 127.58,-204 127.58,-200 131.58,-200 131.58,-180 127.58,-180 127.58,-176 131.58,-176 131.58,-172 340.42,-172 340.42,-208"/>
<polyline fill="none" stroke="black" points="131.58,-204 135.58,-204 135.58,-200 131.58,-200 "/>
<polyline fill="none" stroke="black" points="131.58,-180 135.58,-180 135.58,-176 131.58,-176 "/>
<text text-anchor="middle" x="236" y="-185.8" font-family="Times New Roman" font-size="14.00">data/amplicon_analysis_zmws.csv</text>
</g>
</a>
<!-- task://Anonymous/P_AmpliconAnalysis/doSplitBarcodeAmpliconAnalysis&#45;&gt;file://Anonymous/data/amplicon_analysis_zmws.csv -->
<g id="edge38" class="edge"><title>task://Anonymous/P_AmpliconAnalysis/doSplitBarcodeAmpliconAnalysis&#45;&gt;file://Anonymous/data/amplicon_analysis_zmws.csv</title>
<path fill="none" stroke="black" d="M652.081,-250.276C564.041,-238.198 456.545,-223.284 350.309,-208.037"/>
<polygon fill="black" stroke="black" points="350.76,-204.566 340.364,-206.608 349.764,-211.494 350.76,-204.566"/>
</g>
<!-- task://Anonymous/P_Barcode/emitFastqs -->
<g id="node3" class="node"><title>task://Anonymous/P_Barcode/emitFastqs</title>
<polygon fill="#fed98e" stroke="#000000" points="1370.5,-262.878 1370.5,-289.122 1306.94,-307.679 1217.06,-307.679 1153.5,-289.122 1153.5,-262.878 1217.06,-244.321 1306.94,-244.321 1370.5,-262.878"/>
<text text-anchor="middle" x="1262" y="-280.2" font-family="Times New Roman" font-size="14.00">P_Barcode/emitFastqs</text>
<text text-anchor="middle" x="1262" y="-263.4" font-family="Times New Roman" font-size="14.00">0:03:29</text>
</g>
<!-- file://Anonymous/data/barcoded&#45;fastqs.tgz -->
<g id="node16" class="node"><title>file://Anonymous/data/barcoded&#45;fastqs.tgz</title>
<polygon fill="#eeeeee" stroke="black" points="1385.33,-208 1232.67,-208 1232.67,-204 1228.67,-204 1228.67,-200 1232.67,-200 1232.67,-180 1228.67,-180 1228.67,-176 1232.67,-176 1232.67,-172 1385.33,-172 1385.33,-208"/>
<polyline fill="none" stroke="black" points="1232.67,-204 1236.67,-204 1236.67,-200 1232.67,-200 "/>
<polyline fill="none" stroke="black" points="1232.67,-180 1236.67,-180 1236.67,-176 1232.67,-176 "/>
<text text-anchor="middle" x="1309" y="-185.8" font-family="Times New Roman" font-size="14.00">data/barcoded&#45;fastqs.tgz</text>
</g>
<!-- task://Anonymous/P_Barcode/emitFastqs&#45;&gt;file://Anonymous/data/barcoded&#45;fastqs.tgz -->
<g id="edge28" class="edge"><title>task://Anonymous/P_Barcode/emitFastqs&#45;&gt;file://Anonymous/data/barcoded&#45;fastqs.tgz</title>
<path fill="none" stroke="black" d="M1279.23,-244.198C1284.24,-235.258 1289.65,-225.587 1294.47,-216.975"/>
<polygon fill="black" stroke="black" points="1297.59,-218.564 1299.42,-208.128 1291.48,-215.146 1297.59,-218.564"/>
</g>
<!-- task://Anonymous/P_AmpliconAnalysis/ampliconAnalysisInputReport -->
<g id="node7" class="node"><title>task://Anonymous/P_AmpliconAnalysis/ampliconAnalysisInputReport</title>
<polygon fill="#dddddd" stroke="#dddddd" points="472.063,-90.878 472.063,-117.122 333.781,-135.679 138.219,-135.679 -0.0633076,-117.122 -0.0633076,-90.878 138.219,-72.3207 333.781,-72.3207 472.063,-90.878"/>
<text text-anchor="middle" x="236" y="-108.2" font-family="Times New Roman" font-size="14.00">P_AmpliconAnalysis/ampliconAnalysisInputReport</text>
<text text-anchor="middle" x="236" y="-91.4" font-family="Times New Roman" font-size="14.00">0:00:00</text>
</g>
<!-- file://Anonymous/data/amplicon_analysis_summary.csv&#45;&gt;task://Anonymous/P_AmpliconAnalysis/ampliconAnalysisInputReport -->
<g id="edge52" class="edge"><title>file://Anonymous/data/amplicon_analysis_summary.csv&#45;&gt;task://Anonymous/P_AmpliconAnalysis/ampliconAnalysisInputReport</title>
<path fill="none" stroke="black" d="M424.754,-171.9C398.261,-162.51 364.435,-150.521 332.756,-139.293"/>
<polygon fill="black" stroke="black" points="333.599,-135.879 323.004,-135.837 331.26,-142.477 333.599,-135.879"/>
</g>
<!-- task://Anonymous/P_AmpliconAnalysis/ampliconAnalysisConsensusReport -->
<g id="node11" class="node"><title>task://Anonymous/P_AmpliconAnalysis/ampliconAnalysisConsensusReport</title>
<polygon fill="#dddddd" stroke="#dddddd" points="1007.89,-90.878 1007.89,-117.122 856.235,-135.679 641.765,-135.679 490.112,-117.122 490.112,-90.878 641.765,-72.3207 856.235,-72.3207 1007.89,-90.878"/>
<text text-anchor="middle" x="749" y="-108.2" font-family="Times New Roman" font-size="14.00">P_AmpliconAnalysis/ampliconAnalysisConsensusReport</text>
<text text-anchor="middle" x="749" y="-91.4" font-family="Times New Roman" font-size="14.00">0:00:00</text>
</g>
<!-- file://Anonymous/data/amplicon_analysis_summary.csv&#45;&gt;task://Anonymous/P_AmpliconAnalysis/ampliconAnalysisConsensusReport -->
<g id="edge40" class="edge"><title>file://Anonymous/data/amplicon_analysis_summary.csv&#45;&gt;task://Anonymous/P_AmpliconAnalysis/ampliconAnalysisConsensusReport</title>
<path fill="none" stroke="black" d="M529.185,-171.9C560.51,-162.367 600.636,-150.154 638.011,-138.779"/>
<polygon fill="black" stroke="black" points="639.409,-142.012 647.957,-135.752 637.371,-135.316 639.409,-142.012"/>
</g>
<!-- task://Anonymous/P_Barcode/labelZMWs -->
<g id="node5" class="node"><title>task://Anonymous/P_Barcode/labelZMWs</title>
<polygon fill="#fed98e" stroke="#000000" points="1304.12,-434.878 1304.12,-461.122 1237.86,-479.679 1144.14,-479.679 1077.88,-461.122 1077.88,-434.878 1144.14,-416.321 1237.86,-416.321 1304.12,-434.878"/>
<text text-anchor="middle" x="1191" y="-452.2" font-family="Times New Roman" font-size="14.00">P_Barcode/labelZMWs</text>
<text text-anchor="middle" x="1191" y="-435.4" font-family="Times New Roman" font-size="14.00">0:03:02</text>
</g>
<!-- file://Anonymous/data/barcode.fofn -->
<a xlink:href="../data/barcode.fofn">
<g id="node23" class="node"><title>file://Anonymous/data/barcode.fofn</title>
<polygon fill="#eeeeee" stroke="black" points="1276.25,-380 1161.75,-380 1161.75,-376 1157.75,-376 1157.75,-372 1161.75,-372 1161.75,-352 1157.75,-352 1157.75,-348 1161.75,-348 1161.75,-344 1276.25,-344 1276.25,-380"/>
<polyline fill="none" stroke="black" points="1161.75,-376 1165.75,-376 1165.75,-372 1161.75,-372 "/>
<polyline fill="none" stroke="black" points="1161.75,-352 1165.75,-352 1165.75,-348 1161.75,-348 "/>
<text text-anchor="middle" x="1219" y="-357.8" font-family="Times New Roman" font-size="14.00">data/barcode.fofn</text>
</g>
</a>
<!-- task://Anonymous/P_Barcode/labelZMWs&#45;&gt;file://Anonymous/data/barcode.fofn -->
<g id="edge44" class="edge"><title>task://Anonymous/P_Barcode/labelZMWs&#45;&gt;file://Anonymous/data/barcode.fofn</title>
<path fill="none" stroke="black" d="M1201.27,-416.198C1204.15,-407.543 1207.27,-398.204 1210.07,-389.802"/>
<polygon fill="black" stroke="black" points="1213.45,-390.722 1213.29,-380.128 1206.81,-388.508 1213.45,-390.722"/>
</g>
<!-- task://Anonymous/P_Barcode/barcodeJsonReport -->
<g id="node6" class="node"><title>task://Anonymous/P_Barcode/barcodeJsonReport</title>
<polygon fill="#fed98e" stroke="#000000" points="1677.03,-262.878 1677.03,-289.122 1592.66,-307.679 1473.34,-307.679 1388.97,-289.122 1388.97,-262.878 1473.34,-244.321 1592.66,-244.321 1677.03,-262.878"/>
<text text-anchor="middle" x="1533" y="-280.2" font-family="Times New Roman" font-size="14.00">P_Barcode/barcodeJsonReport</text>
<text text-anchor="middle" x="1533" y="-263.4" font-family="Times New Roman" font-size="14.00">0:00:24</text>
</g>
<!-- file://Anonymous/results/barcode_report.json -->
<a xlink:href="../results/barcode_report.json">
<g id="node13" class="node"><title>file://Anonymous/results/barcode_report.json</title>
<polygon fill="#eeeeee" stroke="black" points="1617,-208 1449,-208 1449,-204 1445,-204 1445,-200 1449,-200 1449,-180 1445,-180 1445,-176 1449,-176 1449,-172 1617,-172 1617,-208"/>
<polyline fill="none" stroke="black" points="1449,-204 1453,-204 1453,-200 1449,-200 "/>
<polyline fill="none" stroke="black" points="1449,-180 1453,-180 1453,-176 1449,-176 "/>
<text text-anchor="middle" x="1533" y="-185.8" font-family="Times New Roman" font-size="14.00">results/barcode_report.json</text>
</g>
</a>
<!-- task://Anonymous/P_Barcode/barcodeJsonReport&#45;&gt;file://Anonymous/results/barcode_report.json -->
<g id="edge16" class="edge"><title>task://Anonymous/P_Barcode/barcodeJsonReport&#45;&gt;file://Anonymous/results/barcode_report.json</title>
<path fill="none" stroke="black" d="M1533,-244.198C1533,-235.734 1533,-226.614 1533,-218.358"/>
<polygon fill="black" stroke="black" points="1536.5,-218.128 1533,-208.128 1529.5,-218.128 1536.5,-218.128"/>
</g>
<!-- file://Anonymous/results/amplicon_analysis_input_report.json -->
<a xlink:href="../results/amplicon_analysis_input_report.json">
<g id="node14" class="node"><title>file://Anonymous/results/amplicon_analysis_input_report.json</title>
<polygon fill="none" stroke="black" stroke-dasharray="1,5" points="367.26,-36 104.74,-36 104.74,-32 100.74,-32 100.74,-28 104.74,-28 104.74,-8 100.74,-8 100.74,-4 104.74,-4 104.74,-0 367.26,-0 367.26,-36"/>
<polyline fill="none" stroke="black" stroke-dasharray="1,5" points="104.74,-32 108.74,-32 108.74,-28 104.74,-28 "/>
<polyline fill="none" stroke="black" stroke-dasharray="1,5" points="104.74,-8 108.74,-8 108.74,-4 104.74,-4 "/>
<text text-anchor="middle" x="236" y="-13.8" font-family="Times New Roman" font-size="14.00">results/amplicon_analysis_input_report.json</text>
</g>
</a>
<!-- task://Anonymous/P_AmpliconAnalysis/ampliconAnalysisInputReport&#45;&gt;file://Anonymous/results/amplicon_analysis_input_report.json -->
<g id="edge10" class="edge"><title>task://Anonymous/P_AmpliconAnalysis/ampliconAnalysisInputReport&#45;&gt;file://Anonymous/results/amplicon_analysis_input_report.json</title>
<path fill="none" stroke="black" d="M236,-72.1985C236,-63.7337 236,-54.6142 236,-46.3577"/>
<polygon fill="black" stroke="black" points="239.5,-46.1284 236,-36.1284 232.5,-46.1284 239.5,-46.1284"/>
</g>
<!-- file://Anonymous/results/amplicon_analysis_consensus_report.json -->
<a xlink:href="../results/amplicon_analysis_consensus_report.json">
<g id="node8" class="node"><title>file://Anonymous/results/amplicon_analysis_consensus_report.json</title>
<polygon fill="none" stroke="black" stroke-dasharray="1,5" points="894.247,-36 603.753,-36 603.753,-32 599.753,-32 599.753,-28 603.753,-28 603.753,-8 599.753,-8 599.753,-4 603.753,-4 603.753,-0 894.247,-0 894.247,-36"/>
<polyline fill="none" stroke="black" stroke-dasharray="1,5" points="603.753,-32 607.753,-32 607.753,-28 603.753,-28 "/>
<polyline fill="none" stroke="black" stroke-dasharray="1,5" points="603.753,-8 607.753,-8 607.753,-4 603.753,-4 "/>
<text text-anchor="middle" x="749" y="-13.8" font-family="Times New Roman" font-size="14.00">results/amplicon_analysis_consensus_report.json</text>
</g>
</a>
<!-- file://Anonymous/results/overview.json -->
<a xlink:href="../results/overview.json">
<g id="node9" class="node"><title>file://Anonymous/results/overview.json</title>
<polygon fill="#eeeeee" stroke="black" points="1783.52,-380 1648.48,-380 1648.48,-376 1644.48,-376 1644.48,-372 1648.48,-372 1648.48,-352 1644.48,-352 1644.48,-348 1648.48,-348 1648.48,-344 1783.52,-344 1783.52,-380"/>
<polyline fill="none" stroke="black" points="1648.48,-376 1652.48,-376 1652.48,-372 1648.48,-372 "/>
<polyline fill="none" stroke="black" points="1648.48,-352 1652.48,-352 1652.48,-348 1648.48,-348 "/>
<text text-anchor="middle" x="1716" y="-357.8" font-family="Times New Roman" font-size="14.00">results/overview.json</text>
</g>
</a>
<!-- task://Anonymous/P_AmpliconAnalysis/ampliconAnalysisConsensusReport&#45;&gt;file://Anonymous/results/amplicon_analysis_consensus_report.json -->
<g id="edge6" class="edge"><title>task://Anonymous/P_AmpliconAnalysis/ampliconAnalysisConsensusReport&#45;&gt;file://Anonymous/results/amplicon_analysis_consensus_report.json</title>
<path fill="none" stroke="black" d="M749,-72.1985C749,-63.7337 749,-54.6142 749,-46.3577"/>
<polygon fill="black" stroke="black" points="752.5,-46.1284 749,-36.1284 745.5,-46.1284 752.5,-46.1284"/>
</g>
<!-- file://Anonymous/input.fofn -->
<a xlink:href="../input.fofn">
<g id="node12" class="node"><title>file://Anonymous/input.fofn</title>
<polygon fill="#eeeeee" stroke="black" points="1386.21,-552 1315.79,-552 1315.79,-548 1311.79,-548 1311.79,-544 1315.79,-544 1315.79,-524 1311.79,-524 1311.79,-520 1315.79,-520 1315.79,-516 1386.21,-516 1386.21,-552"/>
<polyline fill="none" stroke="black" points="1315.79,-548 1319.79,-548 1319.79,-544 1315.79,-544 "/>
<polyline fill="none" stroke="black" points="1315.79,-524 1319.79,-524 1319.79,-520 1315.79,-520 "/>
<text text-anchor="middle" x="1351" y="-529.8" font-family="Times New Roman" font-size="14.00">input.fofn</text>
</g>
</a>
<!-- file://Anonymous/input.fofn&#45;&gt;task://Anonymous/P_AmpliconAnalysis/doSplitBarcodeAmpliconAnalysis -->
<g id="edge8" class="edge"><title>file://Anonymous/input.fofn&#45;&gt;task://Anonymous/P_AmpliconAnalysis/doSplitBarcodeAmpliconAnalysis</title>
<path fill="none" stroke="black" d="M1315.77,-532.205C1260.53,-529.711 1151.35,-519.689 1069,-480 985.501,-439.756 908.162,-362.006 866.371,-315.279"/>
<polygon fill="black" stroke="black" points="868.977,-312.942 859.727,-307.776 863.736,-317.583 868.977,-312.942"/>
</g>
<!-- file://Anonymous/input.fofn&#45;&gt;task://Anonymous/P_Barcode/emitFastqs -->
<g id="edge32" class="edge"><title>file://Anonymous/input.fofn&#45;&gt;task://Anonymous/P_Barcode/emitFastqs</title>
<path fill="none" stroke="black" d="M1345.66,-515.882C1338.49,-493.027 1325.21,-451.323 1313,-416 1301.48,-382.679 1287.67,-345.163 1277.32,-317.512"/>
<polygon fill="black" stroke="black" points="1280.47,-315.931 1273.68,-307.797 1273.91,-318.389 1280.47,-315.931"/>
</g>
<!-- file://Anonymous/input.fofn&#45;&gt;task://Anonymous/P_Barcode/labelZMWs -->
<g id="edge24" class="edge"><title>file://Anonymous/input.fofn&#45;&gt;task://Anonymous/P_Barcode/labelZMWs</title>
<path fill="none" stroke="black" d="M1318.24,-515.799C1299.83,-506.138 1276.24,-493.75 1254.38,-482.272"/>
<polygon fill="black" stroke="black" points="1255.94,-479.139 1245.46,-477.589 1252.68,-485.337 1255.94,-479.139"/>
</g>
<!-- file://Anonymous/input.fofn&#45;&gt;task://Anonymous/P_Barcode/barcodeJsonReport -->
<g id="edge12" class="edge"><title>file://Anonymous/input.fofn&#45;&gt;task://Anonymous/P_Barcode/barcodeJsonReport</title>
<path fill="none" stroke="black" d="M1349.63,-515.766C1347.7,-479.802 1348.22,-395.809 1389,-344 1401.6,-327.987 1418.93,-315.636 1437.21,-306.167"/>
<polygon fill="black" stroke="black" points="1438.8,-309.286 1446.24,-301.746 1435.72,-302.999 1438.8,-309.286"/>
</g>
<!-- task://Anonymous/P_Fetch/adapterRpt -->
<g id="node15" class="node"><title>task://Anonymous/P_Fetch/adapterRpt</title>
<polygon fill="#e78ac3" stroke="#000000" points="1592.03,-434.878 1592.03,-461.122 1535.19,-479.679 1454.81,-479.679 1397.97,-461.122 1397.97,-434.878 1454.81,-416.321 1535.19,-416.321 1592.03,-434.878"/>
<text text-anchor="middle" x="1495" y="-452.2" font-family="Times New Roman" font-size="14.00">P_Fetch/adapterRpt</text>
<text text-anchor="middle" x="1495" y="-435.4" font-family="Times New Roman" font-size="14.00">0:00:52</text>
</g>
<!-- file://Anonymous/input.fofn&#45;&gt;task://Anonymous/P_Fetch/adapterRpt -->
<g id="edge26" class="edge"><title>file://Anonymous/input.fofn&#45;&gt;task://Anonymous/P_Fetch/adapterRpt</title>
<path fill="none" stroke="black" d="M1380.49,-515.799C1397.12,-506.098 1418.46,-493.649 1438.2,-482.131"/>
<polygon fill="black" stroke="black" points="1439.97,-485.153 1446.84,-477.091 1436.44,-479.107 1439.97,-485.153"/>
</g>
<!-- task://Anonymous/P_Fetch/overviewRpt -->
<g id="node20" class="node"><title>task://Anonymous/P_Fetch/overviewRpt</title>
<polygon fill="#e78ac3" stroke="#000000" points="1821.53,-434.878 1821.53,-461.122 1759.71,-479.679 1672.29,-479.679 1610.47,-461.122 1610.47,-434.878 1672.29,-416.321 1759.71,-416.321 1821.53,-434.878"/>
<text text-anchor="middle" x="1716" y="-452.2" font-family="Times New Roman" font-size="14.00">P_Fetch/overviewRpt</text>
<text text-anchor="middle" x="1716" y="-435.4" font-family="Times New Roman" font-size="14.00">0:00:03</text>
</g>
<!-- file://Anonymous/input.fofn&#45;&gt;task://Anonymous/P_Fetch/overviewRpt -->
<g id="edge42" class="edge"><title>file://Anonymous/input.fofn&#45;&gt;task://Anonymous/P_Fetch/overviewRpt</title>
<path fill="none" stroke="black" d="M1386.33,-526.14C1434.88,-516.57 1524.86,-498.318 1601,-480 1610.5,-477.715 1620.41,-475.217 1630.26,-472.663"/>
<polygon fill="black" stroke="black" points="1631.27,-476.014 1640.06,-470.096 1629.5,-469.242 1631.27,-476.014"/>
</g>
<!-- file://Anonymous/results/filter_reports_adapters.json -->
<a xlink:href="../results/filter_reports_adapters.json">
<g id="node18" class="node"><title>file://Anonymous/results/filter_reports_adapters.json</title>
<polygon fill="#eeeeee" stroke="black" points="1607.49,-380 1398.51,-380 1398.51,-376 1394.51,-376 1394.51,-372 1398.51,-372 1398.51,-352 1394.51,-352 1394.51,-348 1398.51,-348 1398.51,-344 1607.49,-344 1607.49,-380"/>
<polyline fill="none" stroke="black" points="1398.51,-376 1402.51,-376 1402.51,-372 1398.51,-372 "/>
<polyline fill="none" stroke="black" points="1398.51,-352 1402.51,-352 1402.51,-348 1398.51,-348 "/>
<text text-anchor="middle" x="1503" y="-357.8" font-family="Times New Roman" font-size="14.00">results/filter_reports_adapters.json</text>
</g>
</a>
<!-- task://Anonymous/P_Fetch/adapterRpt&#45;&gt;file://Anonymous/results/filter_reports_adapters.json -->
<g id="edge34" class="edge"><title>task://Anonymous/P_Fetch/adapterRpt&#45;&gt;file://Anonymous/results/filter_reports_adapters.json</title>
<path fill="none" stroke="black" d="M1497.93,-416.198C1498.74,-407.734 1499.61,-398.614 1500.39,-390.358"/>
<polygon fill="black" stroke="black" points="1503.9,-390.415 1501.37,-380.128 1496.94,-389.752 1503.9,-390.415"/>
</g>
<!-- task://Anonymous/P_Fetch/toFofn -->
<g id="node19" class="node"><title>task://Anonymous/P_Fetch/toFofn</title>
<polygon fill="#e78ac3" stroke="#000000" points="1429.38,-606.878 1429.38,-633.122 1383.46,-651.679 1318.54,-651.679 1272.62,-633.122 1272.62,-606.878 1318.54,-588.321 1383.46,-588.321 1429.38,-606.878"/>
<text text-anchor="middle" x="1351" y="-624.2" font-family="Times New Roman" font-size="14.00">P_Fetch/toFofn</text>
<text text-anchor="middle" x="1351" y="-607.4" font-family="Times New Roman" font-size="14.00">0:00:00</text>
</g>
<!-- task://Anonymous/P_Fetch/toFofn&#45;&gt;file://Anonymous/input.fofn -->
<g id="edge50" class="edge"><title>task://Anonymous/P_Fetch/toFofn&#45;&gt;file://Anonymous/input.fofn</title>
<path fill="none" stroke="black" d="M1351,-588.198C1351,-579.734 1351,-570.614 1351,-562.358"/>
<polygon fill="black" stroke="black" points="1354.5,-562.128 1351,-552.128 1347.5,-562.128 1354.5,-562.128"/>
</g>
<!-- task://Anonymous/P_Fetch/overviewRpt&#45;&gt;file://Anonymous/results/overview.json -->
<g id="edge48" class="edge"><title>task://Anonymous/P_Fetch/overviewRpt&#45;&gt;file://Anonymous/results/overview.json</title>
<path fill="none" stroke="black" d="M1716,-416.198C1716,-407.734 1716,-398.614 1716,-390.358"/>
<polygon fill="black" stroke="black" points="1719.5,-390.128 1716,-380.128 1712.5,-390.128 1719.5,-390.128"/>
</g>
<!-- file://Anonymous/data/amplicon_analysis_zmws.csv&#45;&gt;task://Anonymous/P_AmpliconAnalysis/ampliconAnalysisInputReport -->
<g id="edge20" class="edge"><title>file://Anonymous/data/amplicon_analysis_zmws.csv&#45;&gt;task://Anonymous/P_AmpliconAnalysis/ampliconAnalysisInputReport</title>
<path fill="none" stroke="black" d="M236,-171.595C236,-164.123 236,-155.048 236,-146.032"/>
<polygon fill="black" stroke="black" points="239.5,-145.967 236,-135.967 232.5,-145.967 239.5,-145.967"/>
</g>
<!-- file://Anonymous//home/UNIXHOME/bbowman/2014/09/HLA_Hackathon/Split_11/input.xml -->
<a xlink:href="..//home/UNIXHOME/bbowman/2014/09/HLA_Hackathon/Split_11/input.xml">
<g id="node22" class="node"><title>file://Anonymous//home/UNIXHOME/bbowman/2014/09/HLA_Hackathon/Split_11/input.xml</title>
<polygon fill="#eeeeee" stroke="black" points="1575.17,-724 1126.83,-724 1126.83,-720 1122.83,-720 1122.83,-716 1126.83,-716 1126.83,-696 1122.83,-696 1122.83,-692 1126.83,-692 1126.83,-688 1575.17,-688 1575.17,-724"/>
<polyline fill="none" stroke="black" points="1126.83,-720 1130.83,-720 1130.83,-716 1126.83,-716 "/>
<polyline fill="none" stroke="black" points="1126.83,-696 1130.83,-696 1130.83,-692 1126.83,-692 "/>
<text text-anchor="middle" x="1351" y="-701.8" font-family="Times New Roman" font-size="14.00">/home/UNIXHOME/bbowman/2014/09/HLA_Hackathon/Split_11/input.xml</text>
</g>
</a>
<!-- file://Anonymous//home/UNIXHOME/bbowman/2014/09/HLA_Hackathon/Split_11/input.xml&#45;&gt;task://Anonymous/P_Fetch/toFofn -->
<g id="edge46" class="edge"><title>file://Anonymous//home/UNIXHOME/bbowman/2014/09/HLA_Hackathon/Split_11/input.xml&#45;&gt;task://Anonymous/P_Fetch/toFofn</title>
<path fill="none" stroke="black" d="M1351,-687.595C1351,-680.123 1351,-671.048 1351,-662.032"/>
<polygon fill="black" stroke="black" points="1354.5,-661.967 1351,-651.967 1347.5,-661.967 1354.5,-661.967"/>
</g>
<!-- file://Anonymous/data/barcode.fofn&#45;&gt;task://Anonymous/P_AmpliconAnalysis/doSplitBarcodeAmpliconAnalysis -->
<g id="edge30" class="edge"><title>file://Anonymous/data/barcode.fofn&#45;&gt;task://Anonymous/P_AmpliconAnalysis/doSplitBarcodeAmpliconAnalysis</title>
<path fill="none" stroke="black" d="M1161.78,-348.515C1113.86,-338.06 1043.33,-322.671 979.953,-308.844"/>
<polygon fill="black" stroke="black" points="980.364,-305.352 969.848,-306.639 978.872,-312.191 980.364,-305.352"/>
</g>
<!-- file://Anonymous/data/barcode.fofn&#45;&gt;task://Anonymous/P_Barcode/emitFastqs -->
<g id="edge36" class="edge"><title>file://Anonymous/data/barcode.fofn&#45;&gt;task://Anonymous/P_Barcode/emitFastqs</title>
<path fill="none" stroke="black" d="M1227.91,-343.595C1231.9,-335.802 1236.78,-326.264 1241.59,-316.869"/>
<polygon fill="black" stroke="black" points="1244.71,-318.464 1246.15,-307.967 1238.48,-315.274 1244.71,-318.464"/>
</g>
<!-- file://Anonymous/data/barcode.fofn&#45;&gt;task://Anonymous/P_Barcode/barcodeJsonReport -->
<g id="edge14" class="edge"><title>file://Anonymous/data/barcode.fofn&#45;&gt;task://Anonymous/P_Barcode/barcodeJsonReport</title>
<path fill="none" stroke="black" d="M1276.23,-345.691C1319.93,-333.999 1381.25,-317.595 1433.01,-303.75"/>
<polygon fill="black" stroke="black" points="1434.13,-307.072 1442.89,-301.106 1432.32,-300.31 1434.13,-307.072"/>
</g>
</g>
</svg>
